<?xml version="1.0" standalone="no"?>
<!DOCTYPE svg PUBLIC "-//W3C//DTD SVG 20010904//EN"
 "http://www.w3.org/TR/2001/REC-SVG-20010904/DTD/svg10.dtd">
<svg version="1.0" xmlns="http://www.w3.org/2000/svg"
 width="1186.000000pt" height="849.000000pt" viewBox="0 0 1186.000000 849.000000"
 preserveAspectRatio="xMidYMid meet">

<g transform="translate(0.000000,849.000000) scale(0.100000,-0.100000)"
fill="#000000" stroke="none">
<path d="M0 4245 l0 -4245 5930 0 5930 0 0 4245 0 4245 -5930 0 -5930 0 0
-4245z m6281 4068 c-11 -16 -22 -39 -25 -53 -4 -16 0 -13 10 10 24 54 43 70
83 70 l35 0 -31 -32 c-39 -42 -53 -69 -53 -106 0 -16 -11 -51 -25 -77 -26 -52
-28 -71 -3 -33 17 27 34 77 43 132 4 26 19 50 46 77 39 38 42 39 112 39 l72 0
-42 -22 c-72 -39 -123 -92 -123 -127 0 -47 -52 -151 -95 -191 -42 -40 -49 -47
-106 -112 -22 -26 -62 -57 -87 -68 -85 -39 -127 -63 -165 -96 -21 -17 -68 -46
-105 -64 -37 -18 -94 -53 -127 -77 -96 -71 -226 -152 -275 -169 -25 -9 -82
-34 -128 -55 -45 -22 -89 -39 -97 -39 -7 0 -44 -11 -82 -24 -37 -13 -86 -29
-108 -35 -22 -5 -50 -13 -62 -16 -29 -8 -30 -50 -3 -85 11 -14 20 -29 20 -34
0 -5 16 -40 35 -78 20 -37 35 -71 35 -75 1 -5 5 -26 11 -47 10 -35 7 -144 -5
-203 -10 -48 -73 -157 -113 -196 -24 -23 -65 -53 -91 -67 -54 -28 -187 -165
-228 -236 -27 -46 -27 -47 -11 -98 9 -28 21 -73 28 -100 8 -31 29 -70 55 -102
57 -70 80 -118 110 -227 54 -201 59 -233 46 -296 -7 -31 -12 -72 -12 -90 0
-17 -6 -44 -14 -59 -8 -15 -16 -43 -19 -63 -6 -50 -44 -123 -89 -174 -29 -33
-51 -47 -96 -60 -68 -21 -97 -43 -143 -112 -52 -76 -89 -104 -221 -162 -80
-35 -131 -72 -157 -115 -11 -17 -39 -41 -63 -53 -43 -22 -130 -53 -148 -53 -6
0 -29 -9 -53 -19 -23 -11 -66 -27 -96 -35 -55 -16 -107 -44 -98 -52 8 -8 -37
-115 -69 -164 -16 -25 -38 -69 -49 -98 -20 -49 -106 -177 -158 -233 -37 -38
-67 -116 -77 -194 -12 -94 -34 -168 -65 -220 -26 -45 -47 -68 -152 -167 -56
-54 -118 -152 -107 -170 3 -4 13 -8 22 -8 38 0 122 -50 150 -89 45 -62 56
-114 47 -233 -5 -57 -8 -166 -9 -243 0 -126 3 -149 27 -226 48 -150 115 -234
185 -229 71 4 208 3 327 -2 108 -5 128 -3 195 18 41 13 104 29 140 35 36 6 88
22 116 35 100 47 419 40 530 -12 22 -10 41 -21 44 -26 3 -4 24 -10 45 -13 102
-13 340 -38 435 -45 58 -4 121 -13 140 -19 19 -6 59 -11 89 -11 75 0 135 35
206 122 31 38 93 99 137 135 64 53 86 79 113 133 45 90 143 218 210 275 31 27
59 60 65 79 24 73 178 183 244 173 17 -2 38 -7 46 -11 10 -4 36 9 74 39 32 24
82 52 112 62 32 10 75 35 105 60 62 53 101 61 170 37 62 -23 149 -112 184
-189 13 -27 35 -61 50 -75 15 -14 34 -38 42 -55 9 -16 36 -58 61 -93 35 -47
59 -69 99 -87 28 -14 57 -25 63 -25 7 0 25 -9 41 -21 25 -18 34 -19 61 -10 61
22 166 3 225 -39 31 -22 60 -78 68 -130 4 -25 18 -69 32 -99 23 -50 31 -90 48
-253 6 -54 8 -57 38 -64 43 -9 79 -35 160 -117 119 -119 157 -122 331 -21 72
42 129 82 145 103 37 49 65 77 164 166 81 73 88 83 107 144 21 69 96 181 209
310 71 82 124 107 246 116 111 7 155 -3 324 -79 148 -66 188 -99 196 -165 16
-120 75 -196 198 -255 150 -71 209 -123 301 -265 25 -39 68 -99 96 -135 56
-71 82 -134 75 -176 -6 -37 9 -133 30 -190 22 -58 25 -86 34 -255 8 -158 7
-160 -66 -305 -26 -52 -56 -113 -65 -136 -10 -22 -28 -46 -40 -53 -13 -7 -35
-29 -49 -50 -26 -37 -117 -91 -180 -106 -14 -4 -52 -33 -83 -65 -52 -53 -113
-92 -194 -121 -18 -6 -58 -41 -93 -80 -34 -38 -68 -69 -76 -69 -9 0 -36 -23
-62 -51 -25 -28 -57 -56 -71 -61 -41 -16 -190 -38 -259 -38 -59 0 -62 1 -50
17 13 17 13 17 -13 0 -27 -17 -78 -24 -78 -10 0 4 12 21 27 37 19 21 15 19
-12 -7 l-41 -37 -4527 0 -4527 0 0 4145 0 4145 3110 0 3111 0 -20 -27z m5519
-4118 l0 -4145 -1106 0 -1105 0 48 51 c26 27 64 59 85 69 20 11 56 45 80 76
34 46 54 62 98 79 83 32 118 54 186 118 33 31 66 57 73 57 7 0 42 14 77 32 48
24 83 52 133 108 37 41 72 86 76 100 4 14 22 50 40 80 19 30 36 67 40 82 4 16
10 28 14 28 4 0 15 18 25 40 15 35 17 63 13 222 -4 166 -7 189 -30 251 -17 43
-28 98 -32 155 -9 120 -17 139 -99 250 -39 53 -84 117 -100 142 -78 122 -146
181 -287 248 -100 47 -165 111 -174 171 -24 152 -50 177 -275 272 -129 54
-164 60 -295 57 -99 -3 -127 -7 -160 -25 -97 -52 -309 -324 -334 -430 -11 -43
-23 -58 -118 -143 -58 -52 -116 -111 -128 -131 -16 -24 -58 -57 -136 -104
-100 -61 -120 -69 -164 -70 -56 0 -64 5 -170 112 -34 35 -82 72 -107 83 -52
23 -54 28 -57 145 -2 79 -5 89 -39 165 -11 25 -25 70 -31 101 -6 30 -23 72
-36 92 -54 79 -174 117 -297 94 -15 -3 -30 -2 -33 3 -3 4 -37 21 -75 36 -74
29 -109 62 -163 154 -15 25 -40 61 -57 80 -17 19 -42 55 -55 80 -53 101 -133
176 -219 205 -71 24 -110 15 -175 -40 -29 -25 -65 -48 -79 -51 -38 -9 -101
-41 -142 -73 -29 -21 -46 -26 -95 -26 -47 0 -73 -6 -117 -29 -67 -35 -132 -95
-159 -148 -11 -21 -50 -68 -87 -105 -97 -99 -142 -155 -187 -238 -48 -87 -59
-100 -150 -175 -39 -32 -90 -85 -114 -118 -67 -92 -153 -124 -251 -95 -25 8
-67 16 -95 18 -100 8 -371 34 -430 41 -33 4 -87 20 -120 35 -95 44 -199 59
-366 53 -125 -4 -151 -8 -197 -29 -29 -13 -81 -29 -115 -36 -34 -6 -93 -21
-132 -34 -61 -20 -84 -22 -180 -18 -60 3 -171 5 -246 6 -121 2 -139 4 -159 22
-55 50 -101 169 -114 300 -5 39 -10 86 -12 105 -2 19 3 70 12 115 24 116 16
242 -20 317 -30 64 -92 123 -138 133 -16 4 -32 13 -35 21 -9 23 39 86 122 160
42 37 89 89 104 115 34 54 70 168 80 254 4 33 13 73 19 88 17 41 88 141 174
246 15 18 48 83 48 93 0 5 15 34 33 65 17 31 43 86 57 122 l26 66 74 25 c41
14 85 31 98 38 13 7 54 21 92 31 85 23 110 38 197 122 54 52 84 72 145 97 105
42 169 86 203 139 52 82 73 101 140 123 51 17 74 32 108 70 45 49 97 140 97
168 1 10 8 35 16 57 16 43 34 148 39 230 4 59 -52 288 -93 379 -14 33 -45 82
-68 109 -29 34 -46 65 -54 101 -7 28 -19 70 -27 93 -14 39 -14 45 3 77 27 51
158 183 224 225 82 53 131 107 174 190 32 62 40 91 49 172 13 120 4 166 -58
289 -23 47 -45 95 -49 106 -7 23 -7 22 229 101 182 61 368 158 515 268 30 23
75 50 100 60 25 10 77 42 115 70 39 28 104 68 146 88 50 24 90 52 120 84 74
82 83 91 122 129 47 45 71 91 88 168 16 68 48 99 152 152 l62 31 2588 1 2587
2 0 -4145z"/>
<path d="M6233 8165 c-6 -17 -37 -59 -69 -95 -90 -100 -106 -123 -31 -45 79
83 121 139 115 157 -3 7 -9 -1 -15 -17z"/>
<path d="M6199 8023 c-22 -24 -26 -31 -11 -20 21 14 59 57 50 57 -2 0 -20 -16
-39 -37z"/>
<path d="M6109 7926 c-19 -18 -67 -45 -105 -59 -38 -15 -91 -45 -118 -67 -27
-22 -79 -56 -117 -76 -38 -20 -68 -38 -66 -40 7 -8 153 74 191 107 22 20 75
51 117 68 44 18 89 46 109 66 43 44 36 45 -11 1z"/>
<path d="M6000 7924 c-33 -13 -33 -14 -5 -8 17 3 34 10 40 15 11 11 8 11 -35
-7z"/>
<path d="M5831 7830 c-13 -11 -19 -20 -14 -20 6 0 18 9 28 20 23 25 17 25 -14
0z"/>
<path d="M5733 7770 c-29 -17 -53 -33 -53 -35 0 -3 26 9 58 27 66 37 68 38 56
38 -5 0 -33 -14 -61 -30z"/>
<path d="M5611 7690 c-13 -11 -19 -20 -14 -20 6 0 18 9 28 20 23 25 17 25 -14
0z"/>
<path d="M5605 7614 c-28 -19 -78 -51 -112 -71 -35 -19 -66 -40 -70 -46 -7
-12 55 23 158 89 56 36 90 64 77 64 -2 0 -26 -16 -53 -36z"/>
<path d="M5468 7594 c-38 -20 -36 -28 2 -9 17 9 30 18 30 20 0 7 -1 6 -32 -11z"/>
<path d="M5390 7550 c-19 -11 -31 -19 -27 -20 11 0 67 29 67 35 0 7 -1 7 -40
-15z"/>
<path d="M5253 7495 c-29 -13 -53 -26 -53 -29 0 -4 109 42 119 50 13 11 -21 1
-66 -21z"/>
<path d="M5310 7456 c-118 -51 -158 -66 -250 -95 -137 -42 -166 -56 -196 -97
l-27 -35 22 -72 c13 -40 38 -99 55 -132 18 -33 38 -73 44 -90 6 -16 11 -22 11
-13 1 9 -15 47 -35 85 -19 37 -46 100 -60 140 -24 69 -24 74 -9 103 20 38 66
60 252 119 73 24 135 46 138 51 3 5 28 16 55 25 27 9 52 21 55 26 8 12 8 12
-55 -15z"/>
<path d="M5025 7410 c-13 -6 -15 -9 -5 -9 8 0 22 4 30 9 18 12 2 12 -25 0z"/>
<path d="M4935 7379 c-22 -10 -29 -16 -15 -13 38 10 87 32 70 32 -8 0 -33 -8
-55 -19z"/>
<path d="M4849 7333 c-13 -16 -12 -17 4 -4 9 7 17 15 17 17 0 8 -8 3 -21 -13z"/>
<path d="M4800 7273 c-17 -39 -19 -54 -11 -78 l10 -30 -5 32 c-3 21 2 45 16
73 12 23 19 44 17 47 -3 2 -15 -17 -27 -44z"/>
<path d="M4801 7155 c-1 -5 6 -28 14 -50 8 -22 14 -33 15 -24 0 9 -7 32 -15
50 -8 19 -14 30 -14 24z"/>
<path d="M4865 6990 c9 -16 18 -30 21 -30 2 0 -2 14 -11 30 -9 17 -18 30 -21
30 -2 0 2 -13 11 -30z"/>
<path d="M4897 6925 c4 -16 7 -61 7 -100 -2 -63 -1 -66 7 -27 4 23 10 46 13
51 7 10 -13 83 -26 96 -6 7 -7 0 -1 -20z"/>
<path d="M4971 6855 c-1 -11 -4 -31 -6 -45 l-6 -25 11 25 c6 13 9 33 7 45 -4
19 -4 19 -6 0z"/>
<path d="M4951 6733 c-21 -79 -102 -178 -176 -216 -27 -14 -175 -153 -175
-165 0 -2 38 32 85 77 46 44 91 81 98 81 21 0 94 67 129 117 29 43 63 131 54
141 -3 2 -9 -13 -15 -35z"/>
<path d="M4883 6720 c-6 -17 -7 -30 -2 -30 9 0 24 48 17 55 -2 2 -9 -9 -15
-25z"/>
<path d="M4840 6645 c-7 -9 -8 -15 -2 -15 5 0 12 7 16 15 3 8 4 15 2 15 -2 0
-9 -7 -16 -15z"/>
<path d="M4756 6575 c-21 -12 -48 -33 -60 -46 -16 -17 -16 -19 -2 -8 10 8 44
28 75 46 31 18 49 32 41 32 -8 -1 -32 -11 -54 -24z"/>
<path d="M4635 6480 c-3 -6 1 -7 9 -4 18 7 21 14 7 14 -6 0 -13 -4 -16 -10z"/>
<path d="M4550 6388 c-29 -31 -76 -108 -65 -108 2 0 12 15 21 33 9 17 32 49
52 70 20 20 33 37 30 37 -4 0 -21 -15 -38 -32z"/>
<path d="M4541 6277 c-17 -30 -31 -61 -30 -68 0 -8 4 -4 9 8 5 12 21 40 35 63
15 23 24 44 22 47 -3 2 -19 -20 -36 -50z"/>
<path d="M4466 6262 c-3 -5 -8 -29 -10 -53 -5 -43 -4 -40 14 29 8 31 7 41 -4
24z"/>
<path d="M4501 6177 c-1 -17 23 -109 51 -197 13 -41 38 -83 46 -75 3 3 -2 13
-11 23 -9 10 -28 61 -42 113 -42 153 -43 155 -44 136z"/>
<path d="M4451 6145 c0 -11 6 -38 15 -60 15 -40 13 -19 -4 45 -6 20 -10 26
-11 15z"/>
<path d="M4520 5911 c0 -6 4 -13 10 -16 6 -3 7 1 4 9 -7 18 -14 21 -14 7z"/>
<path d="M4540 5876 c0 -2 8 -10 18 -17 15 -13 16 -12 3 4 -13 16 -21 21 -21
13z"/>
<path d="M4642 5840 c38 -52 48 -74 59 -137 6 -32 20 -89 31 -126 18 -60 20
-83 13 -180 -4 -62 -13 -123 -21 -137 -7 -14 -17 -45 -22 -70 -5 -25 -13 -54
-16 -65 -5 -13 -2 -11 8 5 8 14 18 43 22 65 3 22 11 49 17 60 6 11 14 45 18
75 4 30 11 75 14 100 5 32 1 66 -15 120 -11 41 -27 105 -35 142 -16 76 -43
134 -76 163 -21 19 -21 17 3 -15z"/>
<path d="M4591 5813 c28 -34 42 -66 57 -133 l10 -45 -3 45 c-4 54 -39 131 -68
150 -18 11 -17 8 4 -17z"/>
<path d="M4671 5580 c0 -8 4 -24 9 -35 l9 -20 0 20 c0 11 -4 27 -9 35 -9 13
-10 13 -9 0z"/>
<path d="M4696 5424 c-4 -14 -5 -29 -2 -31 3 -3 8 7 12 21 3 15 4 29 1 32 -2
3 -8 -7 -11 -22z"/>
<path d="M3633 5393 c9 -2 23 -2 30 0 6 3 -1 5 -18 5 -16 0 -22 -2 -12 -5z"/>
<path d="M3687 5379 c7 -7 15 -10 18 -7 3 3 -2 9 -12 12 -14 6 -15 5 -6 -5z"/>
<path d="M3720 5366 c0 -2 7 -7 16 -10 8 -3 12 -2 9 4 -6 10 -25 14 -25 6z"/>
<path d="M3464 5324 c-18 -14 -18 -14 6 -3 31 14 36 19 24 19 -6 0 -19 -7 -30
-16z"/>
<path d="M3590 5320 c-33 -25 -19 -25 22 0 18 11 26 20 18 20 -8 0 -26 -9 -40
-20z"/>
<path d="M3676 5325 c10 -8 26 -14 34 -15 8 0 2 7 -14 15 -36 19 -45 19 -20 0z"/>
<path d="M4678 5298 c-5 -28 -4 -29 9 -13 15 21 17 45 4 45 -5 0 -11 -14 -13
-32z"/>
<path d="M3382 5278 c-54 -31 -67 -52 -15 -24 29 16 82 56 73 55 -3 0 -29 -14
-58 -31z"/>
<path d="M3510 5290 c-8 -5 -10 -10 -5 -10 6 0 17 5 25 10 8 5 11 10 5 10 -5
0 -17 -5 -25 -10z"/>
<path d="M3731 5278 c8 -14 10 -53 7 -112 -3 -50 -2 -80 2 -66 10 31 12 147 4
178 -4 12 -10 22 -16 22 -5 0 -3 -10 3 -22z"/>
<path d="M3797 5255 c7 -49 13 -58 13 -19 0 16 -5 36 -10 44 -6 10 -7 2 -3
-25z"/>
<path d="M3615 5261 c-16 -15 -75 -48 -150 -85 -96 -47 -127 -76 -122 -118 3
-18 9 -44 15 -58 6 -14 18 -51 27 -83 15 -49 22 -60 51 -72 30 -12 38 -12 67
3 32 17 35 20 59 57 7 11 37 44 66 73 51 52 62 72 42 72 -11 0 -14 83 -3 94 8
8 13 84 6 109 -5 18 -42 23 -58 8z m11 -143 c-4 -87 -6 -93 -33 -117 -17 -14
-47 -48 -68 -74 -30 -38 -44 -47 -64 -45 -22 3 -28 13 -52 93 -17 57 -23 96
-18 106 4 9 41 34 81 55 40 21 86 46 103 55 54 30 56 28 51 -73z"/>
<path d="M3405 5230 c-56 -33 -54 -41 3 -10 49 25 69 40 57 39 -5 0 -32 -13
-60 -29z"/>
<path d="M3274 5208 l-29 -33 35 30 c19 17 37 31 39 33 2 1 0 2 -5 2 -6 0 -23
-15 -40 -32z"/>
<path d="M4650 5223 c-1 -10 -7 -36 -15 -57 -11 -32 -11 -36 0 -25 13 14 31
99 21 99 -3 0 -6 -8 -6 -17z"/>
<path d="M3802 5155 c0 -16 2 -22 5 -12 2 9 2 23 0 30 -3 6 -5 -1 -5 -18z"/>
<path d="M3225 5140 c-23 -44 -20 -132 6 -161 l21 -24 -16 27 c-17 29 -22 133
-7 142 9 6 22 46 15 46 -2 0 -10 -13 -19 -30z"/>
<path d="M3281 5132 c-24 -45 -11 -129 46 -289 15 -43 70 -89 96 -80 6 2 -4
11 -23 19 -48 20 -54 30 -85 133 -33 107 -42 189 -25 211 7 8 10 17 7 20 -3 3
-10 -3 -16 -14z"/>
<path d="M3786 5102 c-5 -14 -3 -29 4 -38 8 -8 10 -29 7 -52 -4 -30 -3 -33 5
-16 6 14 7 41 1 75 -8 45 -10 50 -17 31z"/>
<path d="M4598 5101 c-7 -10 -28 -22 -47 -26 -53 -11 -116 -42 -137 -67 l-19
-23 25 22 c14 12 58 32 98 44 48 15 77 31 87 46 18 27 12 31 -7 4z"/>
<path d="M2877 5093 c-3 -5 12 -8 34 -8 22 -1 33 2 26 7 -15 10 -54 10 -60 1z"/>
<path d="M2994 5061 c21 -11 44 -26 52 -32 8 -7 17 -9 21 -6 3 4 14 2 24 -4
11 -5 19 -7 19 -4 0 6 -97 50 -132 59 -12 4 -6 -2 16 -13z"/>
<path d="M4635 5060 c-10 -11 -49 -29 -87 -41 -73 -23 -115 -60 -174 -154 -16
-25 -43 -50 -68 -62 -23 -11 -80 -39 -128 -62 -70 -33 -98 -54 -142 -103 -30
-34 -53 -65 -49 -68 3 -3 12 6 21 20 34 52 109 113 182 147 140 64 164 80 198
130 61 89 97 120 159 139 32 10 71 30 88 46 16 15 27 28 24 28 -3 0 -14 -9
-24 -20z"/>
<path d="M3741 5032 c-1 -26 -14 -47 -54 -90 -65 -70 -111 -131 -104 -139 4
-3 19 16 36 42 16 26 47 62 69 81 44 37 66 80 59 116 -3 17 -5 15 -6 -10z"/>
<path d="M2730 5030 c-30 -10 -48 -18 -40 -19 23 -1 89 19 95 29 4 6 5 10 3 9
-2 -1 -28 -9 -58 -19z"/>
<path d="M2840 5010 c-19 -16 -30 -30 -24 -30 6 0 21 12 35 26 30 33 68 29
165 -16 92 -42 147 -89 178 -152 27 -54 36 -51 12 5 -20 48 -98 114 -181 154
-104 49 -141 51 -185 13z"/>
<path d="M2595 4983 c-44 -23 -94 -73 -116 -115 -11 -21 -17 -38 -14 -38 2 0
13 17 24 38 23 45 63 83 116 110 22 12 36 21 30 21 -5 0 -23 -7 -40 -16z"/>
<path d="M3170 4965 c13 -14 26 -25 28 -25 3 0 -5 11 -18 25 -13 14 -26 25
-28 25 -3 0 5 -11 18 -25z"/>
<path d="M2715 4971 c-53 -13 -131 -59 -162 -95 -29 -32 -74 -131 -72 -159 0
-7 10 16 23 50 42 112 76 144 206 189 63 22 66 29 5 15z"/>
<path d="M2850 4944 c-30 -15 -68 -33 -85 -40 -159 -68 -159 -68 -188 -125
-33 -66 -33 -72 -2 -113 21 -27 25 -44 25 -97 0 -36 -7 -89 -15 -119 -34 -124
-37 -147 -25 -192 15 -56 69 -137 96 -144 23 -6 84 20 84 36 0 5 12 13 28 16
15 4 32 11 38 16 18 13 81 13 98 -1 38 -32 126 61 126 133 0 70 22 169 52 236
105 230 90 278 -126 399 -46 26 -41 26 -106 -5z m85 -24 c4 -6 25 -20 48 -32
51 -25 98 -63 114 -92 26 -44 11 -109 -53 -243 -28 -59 -54 -167 -54 -231 0
-34 -6 -50 -28 -71 -25 -25 -33 -28 -77 -24 -56 5 -144 -23 -183 -60 -31 -29
-49 -17 -86 57 -28 55 -29 61 -19 115 6 31 18 81 27 111 22 78 21 161 -5 217
-19 41 -20 51 -8 85 14 44 42 67 114 93 28 10 55 22 61 27 13 9 125 57 136 58
4 0 10 -5 13 -10z"/>
<path d="M4356 4938 l-18 -33 21 25 c18 22 26 40 18 40 -1 0 -11 -15 -21 -32z"/>
<path d="M3741 4907 l-25 -32 32 29 c33 31 37 36 25 35 -5 0 -19 -14 -32 -32z"/>
<path d="M3259 4835 c9 -29 18 -52 20 -50 5 6 -20 95 -29 100 -4 2 0 -20 9
-50z"/>
<path d="M3665 4833 c-28 -53 -36 -61 -105 -95 -41 -21 -86 -38 -100 -39 -14
0 -19 -3 -12 -6 21 -8 98 17 146 47 47 30 109 111 104 135 -2 9 -16 -11 -33
-42z"/>
<path d="M4310 4875 c-7 -9 -10 -18 -7 -21 3 -3 10 4 17 15 13 25 8 27 -10 6z"/>
<path d="M4235 4830 c-16 -7 -17 -9 -3 -9 9 -1 20 4 23 9 7 11 7 11 -20 0z"/>
<path d="M4138 4790 c-31 -16 -59 -34 -62 -39 -5 -7 118 53 133 66 15 12 -23
-2 -71 -27z"/>
<path d="M2445 4779 c-4 -6 -5 -12 -2 -15 2 -3 7 2 10 11 7 17 1 20 -8 4z"/>
<path d="M3490 4770 c-25 -11 -37 -19 -27 -19 20 -1 87 25 87 33 0 9 -10 6
-60 -14z"/>
<path d="M3222 4760 c0 -14 2 -19 5 -12 2 6 2 18 0 25 -3 6 -5 1 -5 -13z"/>
<path d="M3323 4746 c25 -23 95 -51 105 -41 2 2 -12 8 -32 13 -19 6 -50 20
-68 32 l-33 22 28 -26z"/>
<path d="M4015 4698 l-40 -43 43 40 c39 36 47 45 39 45 -2 0 -21 -19 -42 -42z"/>
<path d="M3272 4680 c0 -14 2 -19 5 -12 2 6 2 18 0 25 -3 6 -5 1 -5 -13z"/>
<path d="M3205 4663 c-3 -15 -24 -66 -46 -112 -30 -65 -41 -104 -50 -175 -5
-50 -15 -107 -21 -126 -28 -93 -107 -145 -206 -135 -38 4 -64 2 -78 -7 -12 -7
-45 -26 -74 -41 -28 -16 -49 -31 -46 -34 3 -3 37 13 75 36 67 41 71 42 128 36
71 -8 121 12 171 69 36 41 46 76 61 200 8 66 19 107 45 160 37 78 61 145 53
152 -2 3 -8 -8 -12 -23z"/>
<path d="M2448 4645 c2 -14 8 -28 13 -31 16 -9 10 -99 -11 -160 -11 -32 -19
-68 -19 -79 1 -37 38 87 48 165 7 45 5 62 -11 93 -22 43 -27 47 -20 12z"/>
<path d="M2500 4668 c0 -17 23 -68 31 -68 5 0 2 15 -7 33 -18 34 -24 44 -24
35z"/>
<path d="M3920 4610 c-19 -11 -31 -19 -27 -20 11 0 67 29 67 35 0 7 -1 7 -40
-15z"/>
<path d="M3800 4580 c-18 -12 -2 -12 25 0 13 6 15 9 5 9 -8 0 -22 -4 -30 -9z"/>
<path d="M3202 4505 c-19 -37 -34 -84 -36 -112 -2 -26 -7 -57 -11 -68 -6 -15
-5 -17 4 -9 7 6 16 41 22 78 5 37 21 89 35 117 14 28 24 53 22 55 -3 2 -19
-25 -36 -61z"/>
<path d="M3720 4550 l-25 -8 27 -1 c15 -1 30 4 33 9 7 11 0 11 -35 0z"/>
<path d="M3885 4546 c-27 -7 -75 -22 -105 -34 -30 -12 -80 -29 -111 -37 -68
-19 -111 -58 -128 -117 -7 -24 -30 -75 -52 -114 -21 -39 -46 -90 -54 -113 -8
-23 -24 -56 -36 -72 -12 -17 -19 -33 -16 -36 6 -6 67 96 67 113 0 6 20 48 44
95 24 46 51 106 61 132 23 61 51 82 139 108 39 11 83 27 97 34 15 8 55 21 89
29 34 8 65 17 68 20 7 8 -4 6 -63 -8z"/>
<path d="M3603 4515 c-18 -8 -33 -16 -33 -18 0 -5 82 22 89 29 9 9 -26 2 -56
-11z"/>
<path d="M2520 4508 c0 -7 -3 -24 -7 -38 -9 -36 6 -19 17 19 5 19 5 31 -1 31
-5 0 -9 -6 -9 -12z"/>
<path d="M3506 4425 c-9 -26 -7 -32 5 -12 6 10 9 21 6 23 -2 3 -7 -2 -11 -11z"/>
<path d="M2480 4361 c-27 -112 51 -288 140 -320 42 -14 37 -5 -8 18 -84 43
-149 202 -122 300 6 24 9 45 7 48 -3 2 -10 -18 -17 -46z"/>
<path d="M3476 4350 c-22 -56 -19 -65 5 -11 11 24 18 46 15 48 -2 2 -11 -14
-20 -37z"/>
<path d="M2432 4240 c0 -14 4 -36 8 -50 6 -20 8 -21 8 -5 0 11 -4 34 -8 50 -7
27 -8 27 -8 5z"/>
<path d="M3420 4239 c-7 -11 -10 -23 -7 -25 2 -2 9 7 15 21 14 30 7 33 -8 4z"/>
<path d="M3141 4219 c-6 -18 -9 -34 -7 -36 2 -2 9 10 15 28 6 18 9 34 7 36 -2
2 -9 -10 -15 -28z"/>
<path d="M2450 4151 c0 -6 4 -13 10 -16 6 -3 7 1 4 9 -7 18 -14 21 -14 7z"/>
<path d="M3356 4098 c-30 -52 -31 -57 -9 -29 25 31 57 91 49 91 -2 0 -20 -28
-40 -62z"/>
<path d="M3070 4115 c-13 -13 -43 -32 -67 -41 -24 -9 -41 -19 -39 -21 9 -9 92
35 115 61 14 14 22 26 19 26 -2 0 -15 -11 -28 -25z"/>
<path d="M2489 4082 c5 -10 18 -25 27 -33 11 -9 9 -2 -6 19 -26 35 -36 42 -21
14z"/>
<path d="M2870 4050 c25 -8 87 -13 79 -6 -2 2 -26 6 -54 9 -34 4 -42 3 -25 -3z"/>
<path d="M2742 4010 c-43 -24 -53 -34 -22 -22 44 17 86 42 70 41 -8 0 -30 -9
-48 -19z"/>
<path d="M3299 4013 c-13 -16 -12 -17 4 -4 16 13 21 21 13 21 -2 0 -10 -8 -17
-17z"/>
<path d="M2575 4000 c3 -5 14 -10 23 -10 15 0 15 2 2 10 -20 13 -33 13 -25 0z"/>
<path d="M3333 3968 c-39 -44 -102 -136 -117 -171 -8 -20 -17 -58 -21 -84 -3
-26 -8 -59 -11 -73 -4 -19 -2 -22 6 -10 5 8 10 31 10 50 1 71 53 176 136 278
30 36 28 44 -3 10z"/>
<path d="M3225 3919 c-4 -6 -5 -12 -2 -15 2 -3 7 2 10 11 7 17 1 20 -8 4z"/>
<path d="M3198 3876 c-10 -7 -18 -16 -18 -19 0 -12 28 4 34 19 6 17 6 17 -16
0z"/>
<path d="M3166 3825 c-9 -26 -7 -32 5 -12 6 10 9 21 6 23 -2 3 -7 -2 -11 -11z"/>
<path d="M3141 3744 c0 -11 3 -14 6 -6 3 7 2 16 -1 19 -3 4 -6 -2 -5 -13z"/>
<path d="M3131 3694 c0 -11 3 -14 6 -6 3 7 2 16 -1 19 -3 4 -6 -2 -5 -13z"/>
<path d="M3126 3645 c-3 -9 -6 -22 -5 -28 0 -7 5 -1 10 12 5 13 8 26 5 28 -2
2 -6 -3 -10 -12z"/>
<path d="M3111 3593 c0 -6 -4 -20 -7 -30 -5 -14 -4 -15 5 -7 7 7 11 20 8 30
-3 11 -5 14 -6 7z"/>
<path d="M3153 3532 c-12 -31 -21 -58 -19 -59 5 -6 47 98 44 107 -2 5 -13 -17
-25 -48z"/>
<path d="M2997 3427 c-78 -82 -146 -167 -133 -167 3 0 18 19 34 43 17 23 62
74 102 112 58 57 102 108 88 104 -2 0 -43 -42 -91 -92z"/>
<path d="M3081 3417 l-25 -32 32 29 c33 31 37 36 25 35 -5 0 -19 -14 -32 -32z"/>
<path d="M2993 3338 c-54 -57 -103 -127 -103 -147 1 -9 8 -3 17 14 8 17 42 63
74 103 33 39 58 72 56 72 -1 0 -21 -19 -44 -42z"/>
<path d="M2831 3194 c-6 -21 -9 -40 -6 -42 2 -2 8 13 14 34 6 21 9 40 6 42 -2
2 -8 -13 -14 -34z"/>
<path d="M2870 3117 c0 -46 22 -73 77 -91 67 -23 78 -19 15 5 -58 23 -87 56
-80 94 3 14 1 25 -3 25 -5 0 -9 -15 -9 -33z"/>
<path d="M2812 3120 c0 -14 2 -19 5 -12 2 6 2 18 0 25 -3 6 -5 1 -5 -13z"/>
<path d="M2821 3082 c-2 -29 32 -73 70 -93 23 -11 43 -19 44 -17 2 2 -16 14
-40 27 -30 16 -48 34 -59 60 -8 20 -15 30 -15 23z"/>
<path d="M6790 3055 c-52 -43 -68 -52 -125 -69 -24 -8 -63 -29 -87 -49 -66
-53 -84 -59 -139 -52 -39 5 -58 3 -92 -14 -50 -24 -105 -80 -133 -135 -10 -21
-30 -47 -44 -57 -31 -23 -80 -72 -76 -76 8 -8 127 118 144 152 41 81 106 119
207 120 68 0 73 2 123 42 30 23 81 51 116 63 35 11 72 30 82 41 10 11 32 29
50 40 30 18 36 19 66 6 44 -20 123 -103 144 -152 9 -22 33 -59 53 -81 20 -23
63 -83 95 -134 55 -87 63 -94 120 -120 172 -77 180 -80 233 -73 73 8 141 -4
168 -31 15 -15 25 -41 30 -76 4 -29 20 -80 36 -114 16 -34 29 -75 29 -93 0
-17 4 -34 9 -38 21 -13 -22 146 -49 180 -4 5 -11 33 -15 60 -14 101 -55 129
-189 126 -84 -1 -94 1 -189 41 -107 46 -141 76 -204 187 -15 25 -46 67 -69 93
-23 26 -45 60 -48 74 -8 30 -84 124 -119 147 -12 8 -36 17 -53 21 -26 6 -38 1
-74 -29z"/>
<path d="M6847 3032 c-9 -2 -15 -7 -13 -10 2 -4 -18 -24 -46 -45 -28 -20 -46
-37 -42 -37 5 0 27 14 48 31 21 18 50 35 66 38 20 4 25 9 16 16 -6 6 -19 9
-29 7z"/>
<path d="M3061 2961 c16 -24 24 -56 29 -115 6 -73 7 -75 9 -25 2 78 -7 111
-36 145 l-25 29 23 -34z"/>
<path d="M6930 2955 c19 -19 36 -35 39 -35 3 0 -10 16 -29 35 -19 19 -36 35
-39 35 -3 0 10 -16 29 -35z"/>
<path d="M2980 2953 c35 -19 52 -21 34 -4 -5 5 -22 13 -39 16 -30 7 -30 7 5
-12z"/>
<path d="M6673 2929 c-18 -5 -49 -25 -70 -44 -21 -20 -55 -40 -77 -46 -21 -6
-36 -12 -34 -14 10 -11 75 18 122 53 28 21 67 44 86 49 19 6 28 11 20 11 -8 0
-29 -4 -47 -9z"/>
<path d="M3033 2840 c0 -47 2 -66 4 -42 2 23 2 61 0 85 -2 23 -4 4 -4 -43z"/>
<path d="M6976 2890 c3 -14 19 -41 35 -60 16 -19 50 -66 75 -105 80 -122 88
-134 93 -129 2 2 -2 12 -11 21 -8 10 -34 50 -57 88 -24 39 -56 84 -72 100 -16
17 -38 48 -49 70 -12 24 -18 30 -14 15z"/>
<path d="M6350 2806 c-20 -13 -42 -32 -50 -42 -11 -15 -9 -15 10 2 29 25 63
43 99 55 l26 7 -25 1 c-14 0 -41 -11 -60 -23z"/>
<path d="M6448 2813 c6 -2 18 -2 25 0 6 3 1 5 -13 5 -14 0 -19 -2 -12 -5z"/>
<path d="M3024 2735 c-3 -8 -4 -20 -2 -27 3 -7 7 -1 10 15 6 29 1 36 -8 12z"/>
<path d="M3072 2681 c-7 -29 -12 -74 -12 -99 1 -73 26 -248 40 -268 11 -18 11
-18 5 1 -10 31 -35 225 -35 275 0 25 5 62 11 83 6 21 9 43 7 49 -2 6 -9 -13
-16 -41z"/>
<path d="M6255 2691 c-8 -16 -26 -38 -40 -49 -14 -11 -25 -23 -25 -28 0 -13
61 49 76 79 8 15 12 27 10 27 -3 0 -12 -13 -21 -29z"/>
<path d="M9242 2630 c-62 -9 -84 -23 -146 -88 -111 -117 -179 -219 -207 -307
-11 -35 -24 -67 -29 -70 -6 -3 -10 -11 -10 -17 0 -27 29 17 45 70 25 80 45
117 110 202 116 152 175 200 247 200 18 0 40 5 48 10 17 11 17 11 -58 0z"/>
<path d="M9395 2626 c63 -17 296 -127 313 -149 8 -9 20 -38 28 -64 13 -46 14
-46 8 -8 -12 85 -15 87 -219 182 -50 22 -110 44 -135 47 l-45 5 50 -13z"/>
<path d="M3003 2570 c0 -30 2 -43 4 -27 2 15 2 39 0 55 -2 15 -4 2 -4 -28z"/>
<path d="M6149 2583 c-13 -16 -12 -17 4 -4 16 13 21 21 13 21 -2 0 -10 -8 -17
-17z"/>
<path d="M6058 2563 c-29 -35 -59 -83 -51 -83 7 0 76 100 69 100 -2 0 -10 -8
-18 -17z"/>
<path d="M9308 2573 c12 -2 32 -2 45 0 12 2 2 4 -23 4 -25 0 -35 -2 -22 -4z"/>
<path d="M9178 2539 l-33 -31 35 25 c19 14 51 27 70 30 l35 4 -37 1 c-30 2
-45 -5 -70 -29z"/>
<path d="M6105 2534 c-9 -15 -12 -23 -6 -20 11 7 35 46 28 46 -3 0 -12 -12
-22 -26z"/>
<path d="M9440 2556 c0 -2 7 -7 16 -10 8 -3 12 -2 9 4 -6 10 -25 14 -25 6z"/>
<path d="M7231 2546 c10 -9 69 -36 69 -32 0 6 -55 36 -66 36 -4 0 -5 -2 -3 -4z"/>
<path d="M9514 2516 c11 -9 24 -16 30 -16 12 0 7 5 -24 19 -24 11 -24 11 -6
-3z"/>
<path d="M7018 2513 c6 -2 18 -2 25 0 6 3 1 5 -13 5 -14 0 -19 -2 -12 -5z"/>
<path d="M3012 2490 c0 -14 2 -19 5 -12 2 6 2 18 0 25 -3 6 -5 1 -5 -13z"/>
<path d="M6900 2500 c-13 -9 -13 -10 0 -10 8 0 22 5 30 10 13 9 13 10 0 10 -8
0 -22 -5 -30 -10z"/>
<path d="M7340 2505 c0 -17 109 -55 155 -54 l50 2 -60 7 c-33 4 -79 17 -102
29 -24 12 -43 19 -43 16z"/>
<path d="M6062 2463 c-26 -38 -34 -53 -29 -53 2 0 16 18 31 40 29 45 28 56 -2
13z"/>
<path d="M9095 2453 c-56 -70 -67 -88 -26 -43 37 41 66 80 59 80 -2 0 -16 -17
-33 -37z"/>
<path d="M9610 2470 c8 -5 20 -10 25 -10 6 0 3 5 -5 10 -8 5 -19 10 -25 10 -5
0 -3 -5 5 -10z"/>
<path d="M5971 2434 c-12 -20 -20 -38 -18 -41 3 -2 14 13 26 33 12 20 20 38
18 41 -3 2 -14 -13 -26 -33z"/>
<path d="M6915 2441 c-16 -10 -38 -27 -47 -37 -21 -24 -48 -87 -48 -111 0 -10
11 8 24 40 24 57 55 91 105 114 15 6 19 12 11 12 -8 1 -28 -7 -45 -18z"/>
<path d="M7023 2453 c9 -2 23 -2 30 0 6 3 -1 5 -18 5 -16 0 -22 -2 -12 -5z"/>
<path d="M7578 2453 c7 -3 16 -2 19 1 4 3 -2 6 -13 5 -11 0 -14 -3 -6 -6z"/>
<path d="M7645 2439 c11 -13 21 -26 22 -28 2 -2 3 3 3 12 0 9 -10 22 -22 28
l-23 12 20 -24z"/>
<path d="M6811 2424 c-12 -15 -21 -31 -21 -37 0 -12 -1 -13 29 31 27 38 21 43
-8 6z"/>
<path d="M9672 2425 c0 -11 3 -29 8 -40 11 -25 11 1 0 35 -6 20 -8 21 -8 5z"/>
<path d="M3023 2395 c0 -22 2 -30 4 -17 2 12 2 30 0 40 -3 9 -5 -1 -4 -23z"/>
<path d="M7195 2405 c22 -13 50 -34 63 -47 12 -12 22 -18 22 -12 0 14 -26 37
-73 63 -52 29 -61 26 -12 -4z"/>
<path d="M7075 2400 c3 -4 14 -10 25 -13 11 -3 18 -2 15 3 -3 4 -14 10 -25 13
-11 3 -18 2 -15 -3z"/>
<path d="M6942 2360 c-12 -10 -28 -36 -36 -57 -16 -47 -2 -88 44 -127 34 -28
45 -32 55 -16 3 6 17 10 30 10 13 0 27 -4 30 -10 17 -28 88 10 106 57 14 39
-20 86 -73 102 -24 7 -53 24 -65 37 -26 29 -60 30 -91 4z m82 -44 c8 -13 29
-27 47 -31 41 -9 69 -38 62 -64 -5 -19 -10 -20 -82 -15 -59 5 -80 11 -93 26
-22 25 -23 57 -2 86 20 29 48 28 68 -2z"/>
<path d="M7165 2366 c98 -76 106 -154 24 -234 -35 -34 -85 -56 -94 -41 -4 5
-38 9 -76 9 -103 0 -140 25 -183 125 -13 32 -16 34 -11 10 11 -53 49 -109 85
-127 22 -12 58 -18 100 -18 36 0 72 -4 79 -9 18 -12 76 11 109 42 38 35 65 95
58 131 -9 47 -41 93 -78 111 -28 14 -30 14 -13 1z"/>
<path d="M7671 2354 c0 -11 3 -14 6 -6 3 7 2 16 -1 19 -3 4 -6 -2 -5 -13z"/>
<path d="M5875 2291 c-44 -49 -51 -59 -25 -40 36 28 96 96 89 102 -2 2 -31
-26 -64 -62z"/>
<path d="M6776 2345 c-9 -26 -7 -32 5 -12 6 10 9 21 6 23 -2 3 -7 -2 -11 -11z"/>
<path d="M9009 2343 c-13 -16 -12 -17 4 -4 16 13 21 21 13 21 -2 0 -10 -8 -17
-17z"/>
<path d="M3031 2334 c0 -11 3 -14 6 -6 3 7 2 16 -1 19 -3 4 -6 -2 -5 -13z"/>
<path d="M7680 2324 c0 -6 7 -19 16 -30 14 -18 14 -18 3 6 -14 31 -19 36 -19
24z"/>
<path d="M9700 2326 c0 -11 30 -66 36 -66 2 0 -3 15 -12 33 -19 36 -24 44 -24
33z"/>
<path d="M9771 2310 c33 -67 158 -181 198 -180 9 1 -4 12 -29 25 -43 22 -107
83 -158 150 -19 25 -21 26 -11 5z"/>
<path d="M8975 2294 c-9 -14 -15 -27 -13 -30 2 -2 12 10 22 26 21 37 15 40 -9
4z"/>
<path d="M5905 2235 c-33 -30 -82 -75 -110 -101 -27 -25 -62 -63 -78 -85 -15
-22 -48 -53 -74 -69 -26 -17 -42 -30 -36 -30 22 0 92 61 142 124 29 37 72 79
95 95 37 27 137 121 126 121 -3 0 -32 -25 -65 -55z"/>
<path d="M3110 2271 c0 -12 29 -81 35 -81 2 0 -3 20 -12 45 -14 42 -23 56 -23
36z"/>
<path d="M3056 2250 c3 -14 10 -29 15 -34 14 -16 10 6 -7 34 l-15 25 7 -25z"/>
<path d="M6761 2258 c-1 -24 38 -126 51 -134 5 -4 4 4 -3 17 -7 13 -21 49 -30
79 -10 30 -18 47 -18 38z"/>
<path d="M8951 2234 c0 -11 3 -14 6 -6 3 7 2 16 -1 19 -3 4 -6 -2 -5 -13z"/>
<path d="M5765 2196 c-16 -13 -27 -27 -24 -30 3 -3 18 8 34 24 35 36 31 38
-10 6z"/>
<path d="M9782 2202 c14 -21 98 -98 98 -90 0 2 -26 28 -57 58 -31 30 -50 45
-41 32z"/>
<path d="M3100 2150 c11 -22 23 -40 25 -40 3 0 -4 18 -15 40 -11 22 -23 40
-25 40 -3 0 4 -18 15 -40z"/>
<path d="M7286 2163 c-9 -22 -4 -24 17 -8 14 10 15 14 3 18 -8 3 -17 -1 -20
-10z"/>
<path d="M7363 2173 c20 -2 54 -2 75 0 20 2 3 4 -38 4 -41 0 -58 -2 -37 -4z"/>
<path d="M7480 2166 c0 -2 20 -13 44 -25 51 -23 88 -68 106 -126 12 -37 100
-168 100 -148 0 4 -15 27 -34 51 -19 23 -42 65 -52 93 -23 62 -76 127 -121
145 -34 15 -43 17 -43 10z"/>
<path d="M3161 2155 c-1 -21 70 -106 111 -132 37 -25 49 -28 107 -25 106 5
147 5 316 0 126 -4 143 -3 80 4 -44 4 -93 6 -110 3 -16 -3 -64 0 -107 6 -62
10 -88 10 -133 -1 -78 -19 -125 -3 -190 64 -27 28 -55 60 -62 71 -6 11 -12 16
-12 10z"/>
<path d="M7741 2144 c0 -11 3 -14 6 -6 3 7 2 16 -1 19 -3 4 -6 -2 -5 -13z"/>
<path d="M8886 2101 l-40 -46 44 42 c24 23 42 44 40 46 -3 2 -23 -17 -44 -42z"/>
<path d="M5670 2090 c-24 -28 -40 -53 -37 -56 3 -3 18 12 33 33 16 21 35 44
42 51 12 14 15 22 8 22 -2 0 -23 -23 -46 -50z"/>
<path d="M4270 2121 c-44 -4 -89 -14 -109 -25 -19 -10 -67 -24 -105 -31 -39
-7 -57 -14 -41 -14 40 -1 141 25 168 44 14 10 47 15 92 16 38 1 81 5 95 9 l25
8 -25 -1 c-14 0 -59 -3 -100 -6z"/>
<path d="M4410 2118 c0 -5 22 -8 49 -8 27 0 56 -3 65 -6 9 -3 16 -2 16 4 0 6
-29 12 -65 14 -36 1 -65 0 -65 -4z"/>
<path d="M8726 2038 c-53 -51 -96 -100 -96 -108 0 -8 9 -1 19 16 10 17 30 40
44 51 54 42 139 124 135 129 -3 3 -49 -37 -102 -88z"/>
<path d="M7405 2111 c111 -8 143 -32 183 -138 10 -26 34 -69 54 -94 21 -28 38
-64 42 -89 4 -24 9 -41 11 -38 14 14 -16 102 -48 142 -20 24 -46 68 -57 98
-35 95 -86 129 -192 126 l-73 -1 80 -6z"/>
<path d="M7805 2072 c6 -71 31 -112 85 -139 24 -13 48 -27 54 -33 16 -16 30
-12 16 4 -6 8 -31 23 -56 32 -53 20 -80 59 -94 135 l-9 54 4 -53z"/>
<path d="M10001 2117 c21 -16 79 -45 79 -39 0 10 -54 42 -71 42 -7 0 -10 -1
-8 -3z"/>
<path d="M4575 2102 c6 -6 26 -13 45 -16 23 -5 30 -4 20 2 -23 14 -77 25 -65
14z"/>
<path d="M9890 2105 c0 -7 61 -37 66 -33 2 3 -12 12 -31 21 -19 9 -35 15 -35
12z"/>
<path d="M7246 2074 c-15 -14 -26 -27 -24 -29 2 -3 17 9 33 25 35 36 30 39 -9
4z"/>
<path d="M6876 2073 c-3 -3 13 -15 36 -25 53 -24 58 -19 9 9 -21 12 -41 19
-45 16z"/>
<path d="M4220 2060 c-6 -4 14 -8 46 -9 31 0 55 1 53 3 -9 8 -87 13 -99 6z"/>
<path d="M4373 2063 c9 -2 25 -2 35 0 9 3 1 5 -18 5 -19 0 -27 -2 -17 -5z"/>
<path d="M4690 2057 c23 -14 260 -51 268 -42 4 4 -18 8 -158 28 -52 8 -104 17
-115 21 -12 4 -10 1 5 -7z"/>
<path d="M9971 2066 c2 -2 15 -9 29 -15 24 -11 24 -11 6 3 -16 13 -49 24 -35
12z"/>
<path d="M4448 2053 c12 -2 32 -2 45 0 12 2 2 4 -23 4 -25 0 -35 -2 -22 -4z"/>
<path d="M7307 2046 c-48 -48 -50 -232 -6 -376 16 -49 61 -119 81 -126 27 -8
119 44 173 100 60 62 78 92 68 120 -4 12 -8 26 -9 32 -1 6 -20 35 -42 64 -23
30 -47 78 -56 110 -18 64 -26 69 -116 75 -25 1 -52 6 -61 9 -10 4 -23 0 -32
-8z m129 -46 c21 0 31 -15 67 -101 9 -20 29 -52 46 -71 53 -61 51 -79 -15
-149 -54 -56 -106 -89 -140 -89 -35 0 -85 165 -85 277 0 118 15 148 71 139 19
-3 44 -6 56 -6z"/>
<path d="M10144 2014 c25 -25 59 -69 76 -97 30 -52 74 -111 68 -92 -15 49
-158 235 -180 235 -5 0 11 -21 36 -46z"/>
<path d="M3200 2016 c33 -36 107 -82 116 -73 3 2 -10 10 -28 18 -18 7 -53 31
-78 53 l-45 40 35 -38z"/>
<path d="M4180 2040 c-9 -6 -10 -10 -3 -10 6 0 15 5 18 10 8 12 4 12 -15 0z"/>
<path d="M4533 2043 c9 -2 23 -2 30 0 6 3 -1 5 -18 5 -16 0 -22 -2 -12 -5z"/>
<path d="M7130 2034 l-25 -15 25 7 c28 7 35 12 29 18 -2 2 -15 -2 -29 -10z"/>
<path d="M3898 2024 c-38 -20 -35 -26 5 -10 17 7 39 16 47 19 11 4 9 6 -5 6
-11 0 -32 -7 -47 -15z"/>
<path d="M4630 2016 c59 -25 108 -42 100 -33 -7 7 -135 57 -146 57 -5 -1 16
-11 46 -24z"/>
<path d="M10035 2033 c40 -40 106 -94 93 -75 -9 13 -35 37 -59 54 -24 17 -39
27 -34 21z"/>
<path d="M4120 2020 c-21 -7 -21 -8 -5 -9 11 0 27 4 35 9 18 11 5 11 -30 0z"/>
<path d="M5550 1998 c-52 -28 -61 -29 -148 -26 -57 3 -86 1 -76 -5 8 -5 55 -7
102 -5 67 2 98 9 135 27 26 14 47 28 47 33 0 4 -1 7 -2 7 -2 -1 -28 -15 -58
-31z"/>
<path d="M8784 2008 l-19 -23 23 19 c12 11 22 21 22 23 0 8 -8 2 -26 -19z"/>
<path d="M7761 2004 c0 -11 3 -14 6 -6 3 7 2 16 -1 19 -3 4 -6 -2 -5 -13z"/>
<path d="M4010 2000 c-21 -7 -21 -8 -5 -9 11 0 27 4 35 9 18 11 5 11 -30 0z"/>
<path d="M5085 2000 c86 -21 90 -22 80 -12 -5 6 -35 13 -65 16 -50 5 -52 4
-15 -4z"/>
<path d="M5223 1983 c15 -2 37 -2 50 0 12 2 0 4 -28 4 -27 0 -38 -2 -22 -4z"/>
<path d="M7126 1968 c-3 -13 -5 -59 -4 -103 l1 -80 7 100 c7 106 6 119 -4 83z"/>
<path d="M3895 1962 c-16 -9 -48 -19 -70 -23 l-40 -6 35 -1 c19 0 58 10 85 23
28 13 43 23 35 23 -8 0 -28 -7 -45 -16z"/>
<path d="M4818 1973 c7 -3 16 -2 19 1 4 3 -2 6 -13 5 -11 0 -14 -3 -6 -6z"/>
<path d="M7186 1964 c-9 -23 -7 -54 3 -54 5 0 9 16 9 35 0 39 -3 43 -12 19z"/>
<path d="M4868 1963 c12 -2 32 -2 45 0 12 2 2 4 -23 4 -25 0 -35 -2 -22 -4z"/>
<path d="M8719 1953 c-8 -10 -28 -38 -44 -62 -17 -25 -51 -58 -77 -74 -50 -31
-65 -46 -25 -26 48 25 84 59 125 118 41 60 50 79 21 44z"/>
<path d="M3458 1953 c6 -2 18 -2 25 0 6 3 1 5 -13 5 -14 0 -19 -2 -12 -5z"/>
<path d="M4963 1953 c15 -2 39 -2 55 0 15 2 2 4 -28 4 -30 0 -43 -2 -27 -4z"/>
<path d="M7789 1942 c5 -10 18 -25 27 -33 11 -9 9 -2 -6 19 -26 35 -36 42 -21
14z"/>
<path d="M3553 1943 c9 -2 23 -2 30 0 6 3 -1 5 -18 5 -16 0 -22 -2 -12 -5z"/>
<path d="M3700 1946 c0 -2 11 -6 25 -8 13 -3 22 -1 19 3 -5 9 -44 13 -44 5z"/>
<path d="M5068 1943 c7 -3 16 -2 19 1 4 3 -2 6 -13 5 -11 0 -14 -3 -6 -6z"/>
<path d="M3353 1933 c9 -2 23 -2 30 0 6 3 -1 5 -18 5 -16 0 -22 -2 -12 -5z"/>
<path d="M3613 1933 c9 -2 25 -2 35 0 9 3 1 5 -18 5 -19 0 -27 -2 -17 -5z"/>
<path d="M5113 1933 c9 -2 23 -2 30 0 6 3 -1 5 -18 5 -16 0 -22 -2 -12 -5z"/>
<path d="M5161 1926 c2 -2 40 -6 84 -8 44 -3 69 -2 55 2 -25 8 -147 13 -139 6z"/>
<path d="M5511 1919 c-18 -6 -31 -12 -29 -14 5 -5 78 14 78 20 0 6 -8 5 -49
-6z"/>
<path d="M10160 1900 c6 -11 13 -20 16 -20 2 0 0 9 -6 20 -6 11 -13 20 -16 20
-2 0 0 -9 6 -20z"/>
<path d="M5358 1903 c18 -2 45 -2 60 0 15 2 0 4 -33 4 -33 0 -45 -2 -27 -4z"/>
<path d="M8572 1876 c-42 -30 -48 -36 -34 -36 7 0 26 13 44 30 39 35 35 38
-10 6z"/>
<path d="M7870 1880 c0 -6 5 -10 11 -10 5 0 52 -40 103 -88 51 -49 102 -91
114 -94 32 -9 27 -1 -13 18 -19 9 -63 46 -97 83 -62 66 -118 109 -118 91z"/>
<path d="M7181 1838 c0 -27 4 -48 9 -48 11 0 11 21 0 65 -7 27 -8 25 -9 -17z"/>
<path d="M7988 1865 c5 -11 22 -31 37 -45 23 -21 26 -21 17 -5 -5 11 -22 31
-37 45 -23 21 -26 21 -17 5z"/>
<path d="M7731 1810 c14 -31 19 -36 19 -24 0 6 -7 19 -16 30 -14 18 -14 18 -3
-6z"/>
<path d="M8442 1798 c-29 -17 -51 -32 -49 -35 5 -4 117 56 117 63 0 8 -16 1
-68 -28z"/>
<path d="M10220 1813 c0 -5 24 -38 54 -72 30 -35 59 -79 65 -99 l11 -37 -5 34
c-3 18 -13 43 -22 56 -61 77 -103 126 -103 118z"/>
<path d="M8080 1775 c25 -30 111 -65 160 -65 40 1 147 38 110 39 -8 0 -26 -6
-40 -14 -49 -28 -139 -14 -206 31 -24 17 -33 20 -24 9z"/>
<path d="M8514 1764 c-18 -14 -18 -15 4 -4 12 6 22 13 22 15 0 8 -5 6 -26 -11z"/>
<path d="M7752 1750 c0 -14 2 -19 5 -12 2 6 2 18 0 25 -3 6 -5 1 -5 -13z"/>
<path d="M10358 1728 c24 -35 32 -58 33 -95 1 -26 5 -73 9 -103 6 -41 7 -29 4
48 -4 108 -15 142 -55 177 -17 16 -16 10 9 -27z"/>
<path d="M7201 1735 c0 -27 36 -153 38 -130 0 6 -8 44 -19 85 -11 44 -19 63
-19 45z"/>
<path d="M8445 1730 c-22 -10 -64 -28 -92 -41 -29 -12 -51 -24 -49 -26 5 -5
175 68 182 78 7 11 7 11 -41 -11z"/>
<path d="M7147 1690 c9 -53 24 -83 17 -35 -4 22 -10 47 -15 55 -5 9 -6 1 -2
-20z"/>
<path d="M7680 1706 c0 -46 -110 -163 -191 -202 -32 -15 -57 -29 -55 -31 1 -2
28 8 58 22 90 41 223 193 194 222 -3 4 -6 -1 -6 -11z"/>
<path d="M7726 1670 c-10 -30 -32 -70 -49 -88 -18 -18 -25 -30 -16 -27 31 12
96 128 87 156 -2 7 -12 -11 -22 -41z"/>
<path d="M8145 1670 c27 -12 43 -12 25 0 -8 5 -22 9 -30 9 -10 0 -8 -3 5 -9z"/>
<path d="M8238 1653 c12 -2 30 -2 40 0 9 3 -1 5 -23 4 -22 0 -30 -2 -17 -4z"/>
<path d="M7170 1606 c0 -11 30 -66 36 -66 2 0 -3 15 -12 33 -19 36 -24 44 -24
33z"/>
<path d="M10340 1569 c0 -13 5 -31 10 -39 7 -11 8 -5 4 20 -8 43 -14 51 -14
19z"/>
<path d="M7263 1555 c8 -17 25 -39 38 -50 19 -16 18 -13 -6 20 -41 56 -50 65
-32 30z"/>
<path d="M7589 1489 c-23 -19 -23 -20 -2 -10 12 6 25 16 28 21 10 16 -1 12
-26 -11z"/>
<path d="M10352 1470 c0 -14 2 -19 5 -12 2 6 2 18 0 25 -3 6 -5 1 -5 -13z"/>
<path d="M7340 1470 c8 -5 30 -10 49 -10 45 0 37 6 -19 14 -31 4 -40 3 -30 -4z"/>
<path d="M7540 1460 c-9 -6 -10 -10 -3 -10 6 0 15 5 18 10 8 12 4 12 -15 0z"/>
<path d="M10411 1470 c0 -3 8 -34 20 -70 14 -44 22 -105 26 -190 3 -69 7 -127
9 -129 9 -10 3 199 -7 253 -8 47 -46 153 -48 136z"/>
<path d="M7320 1420 c8 -5 20 -10 25 -10 6 0 3 5 -5 10 -8 5 -19 10 -25 10 -5
0 -3 -5 5 -10z"/>
<path d="M10360 1425 c0 -5 5 -17 10 -25 5 -8 10 -10 10 -5 0 6 -5 17 -10 25
-5 8 -10 11 -10 5z"/>
<path d="M7373 1403 c9 -2 23 -2 30 0 6 3 -1 5 -18 5 -16 0 -22 -2 -12 -5z"/>
<path d="M10392 1330 c0 -14 2 -19 5 -12 2 6 2 18 0 25 -3 6 -5 1 -5 -13z"/>
<path d="M10400 1210 c0 -51 2 -91 5 -89 7 7 8 169 1 176 -3 3 -6 -36 -6 -87z"/>
<path d="M10388 1012 c-10 -20 -16 -38 -13 -40 5 -6 37 58 33 67 -2 5 -11 -8
-20 -27z"/>
<path d="M10450 1008 c-8 -18 -29 -58 -48 -87 -30 -47 -62 -120 -62 -140 0 -5
49 88 107 202 14 27 23 51 20 53 -2 3 -10 -10 -17 -28z"/>
<path d="M10295 833 c-3 -15 -16 -39 -28 -52 l-22 -24 23 14 c21 13 50 75 39
85 -2 3 -8 -8 -12 -23z"/>
<path d="M10279 712 c-47 -53 -73 -69 -154 -96 -31 -10 -69 -34 -100 -64 -27
-26 -67 -62 -88 -80 -21 -17 -34 -32 -29 -32 5 0 48 36 96 79 55 50 98 82 119
86 57 13 111 46 159 98 27 28 46 52 44 54 -2 2 -23 -18 -47 -45z"/>
<path d="M10130 680 l-25 -8 27 -1 c15 -1 30 4 33 9 7 11 0 11 -35 0z"/>
<path d="M10015 624 l-30 -26 35 23 c45 29 45 29 34 29 -5 0 -22 -12 -39 -26z"/>
<path d="M9915 528 l-40 -43 43 40 c39 36 47 45 39 45 -2 0 -21 -19 -42 -42z"/>
<path d="M9848 483 c7 -3 16 -2 19 1 4 3 -2 6 -13 5 -11 0 -14 -3 -6 -6z"/>
<path d="M9800 470 c-8 -5 -10 -10 -5 -10 6 0 17 5 25 10 8 5 11 10 5 10 -5 0
-17 -5 -25 -10z"/>
<path d="M9709 403 l-34 -38 40 35 c22 19 42 36 44 38 2 1 0 2 -5 2 -6 0 -26
-17 -45 -37z"/>
<path d="M9809 410 c-35 -19 -109 -88 -109 -102 0 -4 -19 -20 -42 -34 -24 -14
-64 -47 -90 -72 -42 -40 -53 -46 -103 -50 -30 -2 -58 -9 -61 -14 -3 -5 5 -7
18 -4 12 3 44 8 71 11 40 5 52 13 80 47 17 22 48 48 68 59 20 10 58 43 84 73
28 33 67 65 98 80 28 15 44 26 36 26 -7 -1 -30 -9 -50 -20z"/>
<path d="M9640 335 c-20 -24 -6 -28 15 -5 10 11 13 20 8 20 -6 0 -16 -7 -23
-15z"/>
<path d="M9576 291 c-16 -11 -34 -28 -39 -38 -7 -12 0 -9 19 8 16 15 38 31 49
37 11 6 16 11 10 12 -5 0 -23 -9 -39 -19z"/>
<path d="M9455 210 l-50 -7 52 -1 c28 -1 55 3 58 8 3 6 3 9 -2 8 -4 0 -30 -4
-58 -8z"/>
<path d="M9294 171 c-34 -16 -64 -34 -68 -39 -4 -6 15 1 41 16 26 14 68 32 93
38 30 9 37 13 20 13 -14 1 -53 -12 -86 -28z"/>
<path d="M9321 120 c-24 -11 -41 -23 -38 -26 5 -6 87 33 87 41 0 7 0 7 -49
-15z"/>
</g>
</svg>
