<?xml version="1.0" encoding="utf-8"?>
<!-- Generator: Adobe Illustrator 24.1.1, SVG Export Plug-In . SVG Version: 6.00 Build 0)  -->
<svg version="1.1" id="Capa_1" xmlns="http://www.w3.org/2000/svg" xmlns:xlink="http://www.w3.org/1999/xlink" x="0px" y="0px"
	 viewBox="0 0 135.04 88.61" style="enable-background:new 0 0 135.04 88.61;" xml:space="preserve">
<path d="M134.87,57.44c-0.92-0.96-1.25-2.36-2.36-3.17c-0.05-0.03-0.06-0.1-0.1-0.15c-0.42-0.56-0.8-1.14-1.26-1.66
	c-0.33-0.37-0.59-0.76-0.8-1.2c-0.08-0.16-0.2-0.31-0.33-0.43c-0.51-0.48-1.02-0.96-1.56-1.4c-0.49-0.41-1.01-0.79-1.52-1.16
	c-0.55-0.4-1.14-0.75-1.68-1.18c-0.43-0.35-0.82-0.76-1.2-1.17c-0.29-0.3-0.61-0.6-0.8-0.96c-0.56-1.08-1.08-2.19-1.59-3.3
	c-0.15-0.32-0.25-0.67-0.35-1.01c-0.19-0.61-0.35-1.27-0.74-1.77c-0.49-0.62-1.04-1.24-1.75-1.62c-0.66-0.35-1.13-0.87-1.55-1.46
	c-0.32-0.46-0.71-0.87-0.86-1.43c-0.03-0.11-0.12-0.21-0.18-0.31c-0.57-0.91-1.15-1.82-1.72-2.74c-0.17-0.27-0.36-0.53-0.47-0.82
	c-0.26-0.67-0.48-1.36-0.72-2.04c-0.05-0.15-0.15-0.28-0.23-0.42c-0.15-0.28-0.33-0.55-0.45-0.84c-0.12-0.27-0.12-0.6-0.27-0.85
	c-0.24-0.39-0.59-0.71-0.85-1.08c-0.46-0.65-0.91-1.32-1.35-1.99c-0.21-0.32-0.37-0.66-0.58-0.98c-0.3-0.46-0.53-0.93-0.6-1.49
	c-0.03-0.27-0.17-0.53-0.25-0.8c-0.06-0.23-0.16-0.46-0.15-0.69c0.04-0.9,0.09-1.79,0.28-2.69c0.25-1.25,0.31-2.54,0.53-3.8
	c0.17-0.93-0.02-1.78-0.28-2.65c0.55,0.2,0.89,0.66,1.24,1.07c0.44,0.51,0.78,1.11,1.15,1.67c0.22,0.33,0.38,0.7,0.63,0.99
	c0.53,0.6,1.11,1.16,1.66,1.74c0.25,0.26,0.5,0.5,0.72,0.78c0.42,0.53,0.8,1.1,1.24,1.61c0.67,0.79,1.09,1.71,1.58,2.61
	c0.48,0.88,0.92,1.8,1.52,2.59c0.75,0.99,1.66,1.86,2.49,2.78c0.7,0.78,1.41,1.54,2.08,2.34c0.68,0.81,1.31,1.68,2,2.49
	c0.37,0.44,0.79,0.88,1.27,1.19c0.49,0.31,0.99,0.59,1.33,1.07c0.44-0.19,0.46-0.23,0.29-0.54c-0.08-0.14-0.16-0.28-0.26-0.41
	c-0.5-0.7-0.99-1.41-1.52-2.08c-0.44-0.57-0.93-1.1-1.41-1.64c-0.32-0.36-0.66-0.69-0.98-1.05c-0.36-0.4-0.68-0.86-1.08-1.21
	c-0.98-0.85-1.85-1.81-2.54-2.89c-0.63-0.99-1.35-1.92-1.88-2.98c-0.62-1.25-1.6-2.28-2.33-3.48c-0.43-0.7-1-1.34-1.72-1.81
	c-0.11-0.07-0.2-0.19-0.3-0.29c-0.99-1.06-1.67-2.35-2.57-3.47c-0.6-0.75-1.22-1.48-1.87-2.18c-0.25-0.27-0.65-0.4-0.92-0.66
	c-0.33-0.33-0.67-0.4-1.1-0.32c-0.17,0.03-0.37,0.09-0.53,0.04c-0.57-0.17-0.96,0.1-1.33,0.46c-0.91,0.89-1.64,1.93-2.32,2.99
	c-0.35,0.55-0.72,1.06-1.15,1.53c-0.28,0.31-0.53,0.66-0.8,0.97c-0.3,0.34-0.64,0.66-0.93,1.01c-0.38,0.46-0.9,0.82-1.08,1.43
	c-0.04,0.15-0.16,0.28-0.27,0.4c-0.38,0.47-0.77,0.92-1.15,1.39c-0.4,0.5-0.75,1.05-1.17,1.52c-0.44,0.49-0.94,0.92-1.41,1.37
	c-0.16-0.07-0.33-0.11-0.48-0.21c-0.58-0.39-1.18-0.76-1.7-1.22c-0.51-0.45-1.13-0.75-1.58-1.28c-0.21-0.25-0.56-0.39-0.8-0.63
	c-0.43-0.42-0.8-0.89-1.22-1.31c-0.5-0.51-1.06-0.97-1.54-1.5c-0.74-0.82-1.44-1.67-2.13-2.52c-0.16-0.2-0.24-0.46-0.35-0.69
	c-0.18-0.4-0.31-0.84-0.54-1.2c-0.39-0.62-0.82-1.23-1.28-1.8c-0.75-0.91-1.54-1.79-2.32-2.68c-0.05-0.06-0.13-0.13-0.2-0.13
	c-0.24,0-0.33-0.18-0.46-0.33c-0.44-0.49-0.85-1-1.25-1.53c-0.5-0.66-1.16-1.19-1.71-1.82c-0.51-0.59-1.25-0.92-1.64-1.63
	c-0.15-0.26-0.43-0.47-0.67-0.66c-0.11-0.09-0.31-0.14-0.45-0.11c-0.39,0.09-0.76,0.22-1.14,0.36c-0.15,0.05-0.28,0.22-0.42,0.23
	c-0.44,0.02-0.67,0.3-0.91,0.61c-0.1,0.13-0.23,0.22-0.34,0.34c-0.47,0.47-0.94,0.94-1.41,1.4c-0.84,0.83-1.51,1.81-2.42,2.59
	c-1.13,0.97-2.2,1.98-3.52,2.72c-0.85,0.47-1.59,1.16-2.41,1.7c-1.22,0.8-2.2,1.87-3.22,2.89c-0.47,0.47-0.9,0.96-1.36,1.44
	c-0.15,0.16-0.33,0.28-0.49,0.44c-0.75,0.77-1.5,1.56-2.26,2.33c-0.48,0.48-0.98,0.94-1.5,1.43c-0.12-0.14-0.21-0.21-0.27-0.31
	c-0.53-0.87-1.23-1.57-2.1-2.12c-0.62-0.4-1.29-0.79-1.78-1.33c-0.77-0.85-1.92-0.96-2.77-1.62c-0.45,0-0.61-0.29-0.75-0.66
	c-0.2-0.55-0.62-0.69-1.15-0.41c-0.32,0.17-0.65,0.33-0.94,0.54c-0.62,0.46-1.31,0.88-1.8,1.46c-0.51,0.6-1.09,1.12-1.63,1.68
	c-0.39,0.4-0.76,0.84-1.15,1.23c-1.03,1.04-2.07,2.07-3.12,3.08c-0.69,0.67-1.41,1.31-2.11,1.97c-0.54,0.51-1.08,1.01-1.61,1.53
	c-0.75,0.73-1.49,1.47-2.22,2.22c-1.17,1.21-2.31,2.44-3.5,3.64c-0.78,0.79-1.6,1.53-2.4,2.28c-0.19,0.17-0.39,0.33-0.63,0.52
	c-0.43-0.41-0.84-0.8-1.23-1.19c-0.72-0.72-1.27-1.59-2.05-2.25c-0.15-0.13-0.26-0.31-0.42-0.42c-0.55-0.37-1.13-0.68-1.66-1.07
	c-0.68-0.49-1.45-0.53-2.23-0.55c-0.09,0-0.22,0.05-0.26,0.12c-0.2,0.34-0.52,0.48-0.87,0.61c-0.14,0.05-0.28,0.18-0.36,0.3
	c-0.53,0.85-1.02,1.72-1.56,2.57c-0.31,0.49-0.62,0.99-1.25,1.16c-0.29,0.07-0.43,0.27-0.32,0.6c0.03,0.1-0.02,0.28-0.1,0.37
	c-0.18,0.21-0.41,0.38-0.62,0.57c-0.12,0.11-0.27,0.2-0.33,0.34c-0.56,1.26-1.56,2.18-2.43,3.2c-0.71,0.83-1.52,1.58-2.23,2.41
	c-0.09,0.11-0.19,0.21-0.3,0.3c-0.8,0.66-1.63,1.3-2.3,2.11c-0.15,0.18-0.34,0.33-0.52,0.5c-0.26,0.25-0.55,0.47-0.76,0.76
	c-0.52,0.68-1.2,1.36-1.93,1.79c-0.2,0.12-0.38,0.22-0.35,0.5c0.03,0.28,0.22,0.4,0.47,0.49c0.67,0.26,1.16-0.19,1.63-0.48
	c0.35-0.22,0.57-0.66,0.86-0.99c0.08-0.09,0.19-0.15,0.29-0.22c-0.31,0.54-0.61,1.09-0.93,1.62c-0.15,0.25-0.12,0.45,0.2,0.65
	c0.27-0.21,0.57-0.41,0.82-0.65c0.39-0.39,0.8-0.66,1.42-0.5c-0.19,0.57-0.84,0.91-0.8,1.58c0.28,0.28,0.51-0.08,0.82-0.08
	c0.1,0.51,0.48,0.39,0.89,0.28c-0.08,0.33-0.14,0.58-0.21,0.84c0.17,0.03,0.28,0.06,0.4,0.08c0.02,0.04,0.05,0.09,0.07,0.13
	c-0.07,0.03-0.16,0.05-0.22,0.1c-0.66,0.52-1.33,1.04-1.97,1.58c-0.23,0.19-0.43,0.42-0.58,0.67c-0.18,0.31-0.01,0.58,0.35,0.54
	c0.21-0.02,0.44-0.11,0.59-0.25c0.6-0.51,1.22-0.98,1.99-1.23c0.18-0.06,0.34-0.21,0.47-0.35c0.3-0.32,0.54-0.69,0.86-0.99
	c0.43-0.42,0.92-0.78,1.35-1.19c0.27-0.26,0.5-0.56,0.75-0.84c0.52-0.55,0.86-1.24,1.47-1.73c0.59-0.47,1.09-1.05,1.48-1.73
	c0.35-0.62,0.79-1.19,1.47-1.45c0.39-0.15,0.61-0.41,0.73-0.74c0.14-0.39,0.4-0.64,0.71-0.86c0.35-0.25,0.57-0.57,0.74-0.98
	c0.25-0.57,0.45-1.19,0.96-1.62c0.17-0.14,0.29-0.36,0.08-0.51c-0.27-0.2-0.22-0.45-0.2-0.7c0.04-0.34,0.11-0.68,0.14-1.01
	c0.04-0.66,0.14-1.32,0.07-1.97c-0.07-0.65-0.31-1.28-0.48-1.92c-0.02-0.08-0.03-0.16-0.02-0.24c0.04-0.24,0.03-0.5,0.14-0.7
	c0.2-0.38-0.02-0.68-0.14-1.06c0.14-0.01,0.24-0.05,0.32-0.03c0.34,0.11,0.7,0.21,1.02,0.38c0.78,0.42,1.54,0.85,2.29,1.31
	c0.62,0.38,1.14,0.89,1.56,1.49c0.29,0.41,0.64,0.77,0.96,1.15c0.38,0.46,0.72,0.98,1.34,1.16c0.05,0.01,0.08,0.09,0.12,0.13
	c0.81,0.72,1.62,1.44,2.42,2.17c0.32,0.29,0.67,0.56,0.71,1.06c0.02,0.17,0.2,0.33,0.33,0.48c0.1,0.12,0.25,0.2,0.34,0.33
	c0.76,1.07,1.73,1.89,2.91,2.46c0.25,0.12,0.48,0.28,0.69,0.46c0.38,0.32,0.74,0.66,1.16,1.03c-0.29,0.54-0.68,1.03-1.12,1.49
	c-0.58,0.61-1.2,1.19-1.76,1.82c-1.09,1.23-2.15,2.49-3.23,3.73c-1.44,1.64-2.89,3.28-4.36,4.91c-0.81,0.9-1.71,1.7-2.69,2.41
	c-0.61,0.44-1.28,0.81-1.83,1.36c-0.84,0.83-1.74,1.61-2.61,2.41c-0.33,0.3-0.63,0.63-1,0.87c-0.74,0.48-1.33,1.11-1.88,1.77
	c-0.27,0.33-0.17,0.64,0.24,0.71c0.41,0.07,0.85,0.09,1.21-0.19c0.63-0.49,1.25-1,1.87-1.51c0.36-0.3,0.71-0.62,1.06-0.92
	c-0.46,0.64-1,1.2-1.52,1.78c-0.11,0.12-0.21,0.34-0.17,0.46c0.09,0.24,0.34,0.15,0.53,0.1c0.11-0.03,0.22-0.1,0.31-0.17
	c0.24-0.21,0.48-0.43,0.71-0.65c0.2-0.2,0.39-0.41,0.6-0.6c0.2-0.17,0.35-0.12,0.44,0.14c0.03,0.09,0,0.19,0,0.29
	c-0.24,0.13-0.61,0.16-0.41,0.66c0.63-0.09,1.27-0.18,1.89-0.27c0.17,0.44-0.04,0.71-0.31,1.07c0.8,0.33,1.52-0.21,2.27-0.07
	c-0.06,0.1-0.09,0.15-0.11,0.2c-0.04,0.14-0.15,0.38-0.1,0.42c0.14,0.12,0.35,0.21,0.53,0.21c0.14,0,0.28-0.14,0.41-0.23
	c0.14-0.09,0.29-0.19,0.43-0.28c0.03,0.16,0.05,0.33,0.09,0.56c0.66-0.06,1.27-0.11,1.94-0.17c-0.1,0.17-0.15,0.29-0.23,0.4
	c-0.32,0.47-0.32,0.47,0.07,0.88c-0.12,0.26-0.25,0.52-0.43,0.9c0.32-0.03,0.52,0,0.68-0.07c0.2-0.08,0.36-0.23,0.54-0.35
	c0.11-0.2,0.21-0.41,0.32-0.61c0.03,0.29-0.02,0.53-0.31,0.61c-0.07,0.18-0.1,0.38-0.2,0.54c-0.43,0.63-1.01,1.09-1.69,1.42
	c-0.22,0.11-0.46,0.2-0.61,0.37c-0.11,0.12-0.16,0.37-0.12,0.54c0.05,0.22,0.28,0.21,0.46,0.15c1.2-0.4,2.33-0.9,2.93-2.13
	c0.05-0.11,0.14-0.2,0.21-0.3c0.54-0.72,1.09-1.44,1.61-2.17c0.5-0.71,0.96-1.44,1.45-2.15c0.24-0.35,0.51-0.67,0.77-1
	c0.33-0.4,0.67-0.79,1.01-1.19c0.24-0.27,0.48-0.54,0.72-0.8c0.23-0.25,0.49-0.47,0.71-0.72c0.48-0.56,0.95-1.13,1.41-1.71
	c0.51-0.65,1.04-1.28,1.47-1.98c0.31-0.51,0.47-1.1,0.67-1.67c0.32-0.92,0.81-1.79,0.91-2.79c0.02-0.24,0.05-0.49,0.12-0.71
	c0.37-1.09,0.23-2.23,0.38-3.34c0.01-0.08,0.01-0.17-0.01-0.24c-0.18-0.57-0.37-1.14-0.55-1.72c-0.12-0.38-0.21-0.77-0.32-1.15
	c-0.06-0.21-0.1-0.43-0.19-0.62c-0.18-0.39-0.4-0.76-0.57-1.15c-0.12-0.28-0.11-0.55,0.31-0.68c0.64,0.62,1.27,1.28,1.96,1.89
	c0.74,0.64,1.52,1.23,2.29,1.84c0.02,0.01,0.03,0.02,0.05,0.03c1.02,0.59,1.42,0.95,2.05,1.8c0.02,0.03,0.05,0.07,0.08,0.09
	c0.31,0.18,0.41,0.47,0.46,0.8c0.01,0.1,0.03,0.21,0.08,0.29c0.42,0.58,0.8,1.19,1.29,1.7c0.45,0.48,0.88,0.96,1.21,1.53
	c0.48,0.82,1.09,1.57,1.37,2.51c0.13,0.44,0.39,0.83,0.61,1.24c0.78,1.45,2.12,2.33,3.38,3.28c0.34,0.26,0.63,0.55,0.85,0.89
	c0.34,0.56,0.62,1.16,0.94,1.76c-0.04,0.06-0.07,0.14-0.12,0.19c-0.86,0.84-1.7,1.72-2.59,2.52c-0.91,0.81-1.9,1.54-2.83,2.33
	c-0.52,0.44-0.99,0.92-1.47,1.37c0.39,0.68,0.89,0.77,1.34,0.28c0.79-0.88,1.75-1.54,2.71-2.2c0.18-0.12,0.41-0.18,0.61-0.26
	c0.02,0.04,0.05,0.08,0.07,0.12c-0.13,0.15-0.25,0.31-0.39,0.44c-0.37,0.34-0.76,0.66-1.13,0.99c-0.23,0.21-0.22,0.35,0.04,0.51
	c0.36,0.22,0.69,0.18,1.03-0.16c0.19-0.19,0.37-0.3,0.66-0.36c1.06-0.2,2.11-0.49,3.17-0.71c0.68-0.14,1.35-0.39,2.07-0.33
	c0.24,0.02,0.44-0.06,0.66-0.22c0.51-0.37,1.12-0.59,1.75-0.48c0.45,0.08,0.73-0.02,0.94-0.42c0.52,0.31,0.92,0.24,1.25-0.28
	c0.12-0.18,0.37-0.3,0.58-0.39c0.54-0.22,1.09-0.41,1.64-0.59c0.46-0.15,0.92-0.32,1.39-0.38c0.29-0.04,0.53-0.04,0.72-0.31
	c0.11-0.16,0.35-0.23,0.59-0.37c0.02,0.33,0.08,0.57,0.04,0.79c-0.04,0.23-0.41,0.34-0.32,0.69c0.1,0.01,0.2,0.05,0.29,0.03
	c0.55-0.13,1.09-0.27,1.63-0.43c0.31-0.1,0.58-0.16,0.91,0.01c0.52,0.27,0.72,0.11,0.79-0.49c0-0.02,0.06-0.03,0.16-0.07
	c-0.13,0.59,0.07,0.95,0.71,0.99c0,0.31-0.09,0.69,0.28,0.78c0.26,0.06,0.56-0.04,0.95-0.08c0.04,0.05,0.12,0.2,0.25,0.29
	c0.21,0.17,0.48,0.3,0.72,0.1c0.25-0.2,0.05-0.44-0.03-0.66c-0.19-0.55-0.4-1.09-0.59-1.64c-0.02-0.05-0.05-0.15-0.02-0.17
	c0.29-0.26,0.05-0.48-0.06-0.69c-0.23-0.45-0.34-0.98-0.82-1.28c-0.05-0.03-0.05-0.15-0.08-0.22c-0.2-0.5-0.35-1.02-0.6-1.48
	c-0.25-0.46-0.61-0.86-0.9-1.31c-0.23-0.35-0.5-0.7-0.59-1.09c-0.08-0.32-0.19-0.6-0.34-0.88c-0.34-0.64-0.59-1.3-0.66-2
	c0.03-0.05,0.03-0.07,0.05-0.09c0.06-0.05,0.12-0.1,0.19-0.15c0.53-0.4,0.54-0.46,0.18-1.01c-0.06-0.09-0.1-0.22-0.09-0.32
	c0.02-0.32,0.08-0.64,0.1-0.96c0.01-0.2,0.06-0.44-0.03-0.59c-0.33-0.56-0.11-1.12-0.14-1.81c0.22,0.16,0.33,0.22,0.42,0.31
	c0.65,0.7,1.26,1.44,1.96,2.1c0.66,0.62,1.16,1.32,1.59,2.1c0.18,0.33,0.41,0.66,0.69,0.9c1.17,1.01,2.25,2.12,3.57,2.95
	c0.07,0.04,0.12,0.11,0.18,0.16c0.81,0.66,1.61,1.33,2.43,1.97c0.34,0.26,0.74,0.44,1.19,0.7c-1.5,1.24-3.01,2.38-4.39,3.65
	c-1.39,1.27-2.65,2.66-3.98,4c-0.76-0.4-1.45-0.8-2.17-1.14c-0.54-0.26-1.1-0.48-1.67-0.68c-1.17-0.41-2.39-0.7-3.39-1.49
	c-0.21-0.17-0.4-0.2-0.6-0.05c-0.3,0.23-0.55,0.52-0.87,0.71c-0.67,0.42-1.26,0.92-1.81,1.49c-0.89,0.92-1.83,1.8-2.66,2.76
	c-0.81,0.93-1.72,1.73-2.71,2.46c-0.47,0.35-0.9,0.76-1.41,1.02c-0.89,0.46-1.67,1.11-2.63,1.44c-0.11,0.04-0.19,0.15-0.28,0.22
	c-0.54,0.45-1.1,0.86-1.77,1.13c-1.37,0.55-2.63,1.29-3.72,2.29c-0.41,0.38-0.81,0.77-1.22,1.16c-0.37,0.34-0.76,0.66-1.1,1.03
	c-0.78,0.83-1.53,1.7-2.32,2.53c-0.2,0.22-0.21,0.42-0.09,0.65c0.17,0.34,0.5,0.48,0.96,0.43c0.41-0.04,0.45-0.33,0.48-0.65
	c0.01-0.07,0.06-0.13,0.1-0.22c0.45,0.56,0.81,0.56,1.28,0.05c0.09-0.1,0.2-0.18,0.29-0.26c0.69,0.21,0.77,0.13,1.24-0.39
	c0.37-0.41,0.83-0.77,1.31-1.05c0.32-0.19,0.74-0.2,1.12-0.29c-0.54,0.56-1.11,1.04-1.71,1.47c-0.3,0.22-0.67,0.35-1.02,0.5
	c-0.24,0.1-0.51,0.14-0.74,0.26c-0.11,0.06-0.19,0.26-0.18,0.39c0,0.07,0.2,0.18,0.32,0.2c0.23,0.03,0.49-0.02,0.71,0.03
	c0.38,0.1,0.69,0.07,0.99-0.23c0.29-0.28,0.65-0.43,1.14-0.36c-0.25,0.42-0.47,0.77-0.67,1.14c-0.17,0.31-0.08,0.54,0.23,0.69
	c0.35,0.17,0.67,0.05,0.84-0.32c0.24-0.55,0.32-0.6,0.96-0.57c-0.17,0.29-0.32,0.56-0.5,0.83c-0.13,0.19-0.3,0.43-0.09,0.58
	c0.18,0.13,0.48,0.1,0.73,0.11c0.08,0,0.16-0.12,0.25-0.16c0.16-0.06,0.32-0.1,0.61-0.19c-0.13,0.22-0.16,0.35-0.24,0.4
	c-0.22,0.14-0.27,0.32-0.22,0.57c0.02,0.12-0.04,0.27-0.07,0.4c-0.07,0.32,0.01,0.46,0.35,0.46c0.3,0,0.6-0.04,0.9-0.09
	c0.4-0.07,0.79-0.17,1.18-0.26c0.28-0.06,0.55-0.06,0.77,0.17c-0.02,0.08-0.03,0.14-0.05,0.19c-0.15,0.44-0.03,0.6,0.41,0.6
	c0.22,0,0.39-0.06,0.49-0.27c0.09-0.19,0.24-0.31,0.52-0.25c-0.05,0.15-0.11,0.28-0.13,0.41c-0.08,0.39-0.16,0.78-0.2,1.18
	c-0.02,0.25,0.06,0.48,0.38,0.53c0.32,0.05,0.54-0.05,0.67-0.35c0.1-0.24,0.19-0.48,0.27-0.73c0.28-0.85,0.66-1.68,1.24-2.33
	c1.03-1.14,1.87-2.47,3.12-3.41c0.14-0.11,0.25-0.26,0.36-0.4c0.47-0.65,0.93-1.3,1.41-1.94c0.89-1.17,1.82-2.3,2.68-3.49
	c0.55-0.76,1.07-1.56,1.49-2.41c0.58-1.17,1.2-2.32,1.97-3.36c0.61-0.83,0.81-1.73,0.85-2.7c0.01-0.21-0.03-0.42-0.05-0.74
	c0.72,0.39,1.36,0.71,1.97,1.07c0.62,0.37,1.21,0.8,1.84,1.16c1.05,0.6,2.04,1.25,2.88,2.13c0.17,0.17,0.34,0.34,0.51,0.51
	c0.62,0.59,1.26,1.17,1.87,1.77c0.42,0.41,0.8,0.85,1.22,1.25c0.71,0.68,1.46,1.32,2.13,2.04c0.56,0.6,1.01,1.3,1.54,1.93
	c0.65,0.77,1.35,1.51,2.02,2.27c0.51,0.58,1.03,1.16,1.5,1.77c0.44,0.57,0.94,1.05,1.6,1.32c0.48,0.2,1,0.3,1.47,0.52
	c0.69,0.32,1.4,0.28,2.12,0.24c0.27-0.02,0.66,0.06,0.67-0.33c0.01-0.36-0.39-0.36-0.65-0.4c-1.08-0.15-2.03-0.58-2.84-1.33
	c-0.06-0.05-0.14-0.07-0.21-0.11c-0.58-0.39-1.15-0.79-1.73-1.18c-0.03-0.02-0.06-0.06-0.08-0.09c-0.25-0.56-0.72-0.96-1.13-1.37
	c-0.91-0.93-1.77-1.89-2.59-2.91c-0.67-0.84-1.07-1.87-1.94-2.57c-0.52-0.42-0.97-0.95-1.45-1.42c-0.11-0.11-0.28-0.22-0.31-0.35
	c-0.08-0.34-0.35-0.49-0.59-0.62c-0.44-0.24-0.76-0.58-1.09-0.93c-0.1-0.1-0.19-0.21-0.31-0.29c-0.68-0.5-1.37-0.99-2.04-1.49
	c-0.23-0.17-0.44-0.39-0.61-0.54c0.81-0.85,1.57-1.64,2.31-2.42c0.14,0.11,0.29,0.19,0.4,0.31c0.12,0.13,0.21,0.29,0.32,0.44
	c-0.06,0.13-0.12,0.25-0.22,0.47c0.44-0.03,0.81-0.05,1.21-0.08c0.54,0.51,0.77,0.51,1.35,0c0.18-0.16,0.33-0.34,0.5-0.51
	c0.01,0.16-0.05,0.26-0.12,0.35c-0.23,0.31-0.47,0.6-0.68,0.92c-0.18,0.29-0.09,0.49,0.24,0.59c0.11,0.04,0.25,0.07,0.35,0.04
	c0.28-0.08,0.47,0.01,0.7,0.18c0.36,0.26,0.63,0.19,0.95-0.15c0.07-0.07,0.14-0.13,0.21-0.2c0.53,0.4,0.86,0.35,1.2-0.17
	c0.19-0.28,0.38-0.57,0.58-0.85c0.12-0.17,0.23-0.37,0.53-0.27c-0.39,0.66-0.92,1.19-1.18,1.93c0.23,0.1,0.41,0.17,0.59,0.25
	c-0.21,0.39-0.42,0.76-0.69,1.25c0.31,0,0.48,0.03,0.64-0.01c0.73-0.16,1.45-0.34,2.18-0.51c0.64-0.14,1.22-0.52,1.93-0.35
	c0.15,0.03,0.35-0.15,0.52-0.25c0.11-0.07,0.2-0.18,0.31-0.28c0.11,0.06,0.2,0.12,0.29,0.16c0.43,0.2,0.7,0.15,1.02-0.2
	c0.12-0.13,0.23-0.28,0.34-0.43c0.15-0.2,0.32-0.35,0.59-0.34c0.14,0.45,0.25,0.56,0.62,0.44c0.23-0.07,0.45-0.25,0.62-0.43
	c0.26-0.28,0.46-0.61,0.71-0.9c0.07-0.09,0.21-0.12,0.31-0.18c-0.11,0.35-0.28,0.62-0.44,0.89c-0.11,0.19-0.31,0.41-0.11,0.59
	c0.11,0.1,0.37,0.05,0.55,0.08c0.03,0,0.05,0.05,0.12,0.11c-0.22,0.09-0.41,0.18-0.61,0.25c-0.26,0.09-0.54,0.17-0.8,0.26
	c-0.83,0.29-1.66,0.59-2.5,0.87c-0.27,0.09-0.47,0.21-0.5,0.6c0.24,0.02,0.48,0.09,0.7,0.04c0.49-0.1,0.97-0.26,1.45-0.38
	c1.29-0.34,2.56-0.72,3.77-1.28c0.23-0.11,0.5-0.15,0.74-0.24c0.51-0.19,0.9,0.18,1.39,0.25c-0.18,0.52-0.73,0.8-0.76,1.43
	c0.18,0.01,0.35,0.05,0.48,0.01c0.27-0.07,0.52-0.21,0.79-0.29c0.31-0.09,0.63-0.16,1.01-0.25c-0.05,0.16-0.05,0.23-0.09,0.27
	c-0.25,0.3-0.55,0.57-0.14,0.98c0.05,0.05-0.01,0.23-0.03,0.34c-0.06,0.42-0.05,0.45,0.37,0.49c0.12,0.01,0.24,0.01,0.25,0.01
	c0.27,0.19,0.45,0.39,0.65,0.43c0.2,0.03,0.42-0.11,0.66-0.18c-0.08,0.21-0.15,0.4-0.23,0.58c-0.12,0.26-0.08,0.5,0.16,0.63
	c0.24,0.14,0.46,0.03,0.63-0.18c0.06-0.08,0.13-0.16,0.2-0.24c-0.04,0.24-0.16,0.41-0.27,0.6c-0.23,0.41-0.19,0.63,0.11,0.83
	c0.3,0.2,0.52,0.15,0.82-0.19c0.05-0.06,0.1-0.11,0.16-0.16c0.04,0.05,0.06,0.06,0.06,0.08c-0.02,0.12-0.05,0.23-0.08,0.35
	c-0.07,0.32,0,0.46,0.27,0.54c0.31,0.1,0.54-0.01,0.65-0.35c0.1-0.35,0.16-0.71,0.23-1.07c0.05,0.04,0.12,0.08,0.18,0.13
	c0.79,0.73,1.68,1.29,2.69,1.67c0.29,0.11,0.56,0.16,0.88,0.04c-0.01-0.33-0.2-0.49-0.44-0.62c-1.16-0.62-2.04-1.51-2.66-2.69
	c-0.43-0.81-0.91-1.59-1.39-2.38c-0.45-0.74-0.94-1.45-1.36-2.2c-0.63-1.11-1.41-2.09-2.27-3.02c-0.35-0.38-0.7-0.76-1.05-1.15
	c-0.15-0.16-0.27-0.34-0.44-0.47c-0.8-0.63-1.65-1.21-2.42-1.88c-0.9-0.77-1.4-1.8-1.62-2.95c-0.14-0.73-0.22-1.47-0.31-2.21
	c-0.12-1.01-0.21-2.03-0.32-3.05c-0.06-0.5-0.15-0.99-0.22-1.48c-0.01-0.08-0.02-0.17-0.03-0.23c1.12,0.94,2.23,1.86,3.33,2.79
	c0.68,0.57,1.2,1.27,1.67,2.04c0.81,1.36,1.37,2.88,2.5,4.03c0.93,0.94,1.8,1.94,2.94,2.66c0.69,0.44,1.32,0.98,1.99,1.46
	c0.98,0.7,1.96,1.39,3.03,1.95c0.98,0.51,1.96,1.02,2.78,1.79c0.5,0.47,1.04,0.88,1.69,1.14c0.55,0.22,0.54,0.24,1.01-0.14
	c0.3,0.14,0.61,0.29,0.93,0.41c0.17,0.07,0.36,0.09,0.47-0.12c0.1-0.19-0.03-0.3-0.16-0.4c-0.4-0.31-0.79-0.62-1.18-0.94
	c-0.29-0.24-0.53-0.6-0.86-0.74c-1.29-0.55-2.36-1.43-3.52-2.18c-0.59-0.38-1.16-0.8-1.79-1.08c-0.76-0.34-1.4-0.86-2.08-1.31
	c-0.35-0.23-0.72-0.43-1.03-0.71c-0.7-0.62-1.38-1.27-2.07-1.9c-0.6-0.55-1.02-1.22-1.46-1.87c-0.52-0.78-0.95-1.62-1.4-2.44
	c-0.48-0.87-1.17-1.56-1.86-2.25c-0.7-0.71-1.59-1.22-2.16-2.06c-0.29-0.42-0.69-0.77-0.97-1.21c-0.18-0.29-0.42-0.44-0.71-0.49
	c-0.61-0.09-1.14-0.42-1.78-0.47c-0.65-0.05-1.22-0.02-1.76,0.36c-0.2,0.14-0.39,0.29-0.59,0.42c-0.8,0.5-1.48,1.15-2.18,1.78
	c-0.09,0.08-0.23,0.16-0.25,0.26c-0.08,0.58-0.53,0.93-0.84,1.37c-0.32,0.46-0.61,0.95-0.99,1.35c-0.69,0.72-1.5,1.32-2.07,2.17
	c-0.14,0.21-0.37,0.36-0.56,0.54c-0.17,0.17-0.34,0.18-0.54,0.06c-0.2-0.13-0.43-0.23-0.62-0.38c-0.56-0.42-1.1-0.88-1.67-1.29
	c-0.62-0.45-1.24-0.89-1.89-1.27c-0.87-0.51-1.67-1.1-2.37-1.82c-0.39-0.4-0.69-0.87-1.05-1.29c-0.43-0.5-0.71-1.13-1.3-1.47
	c-0.12-0.44-0.49-0.65-0.82-0.9c-1.2-0.9-2-2.16-2.98-3.35c0.24-0.36,0.47-0.71,0.71-1.04c0.08-0.11,0.2-0.21,0.33-0.24
	c0.52-0.14,1.04-0.26,1.64-0.4c-0.14,0.36-0.28,0.63-0.35,0.92c-0.07,0.29-0.25,0.39-0.5,0.44c-0.28,0.06-0.55,0.12-0.82,0.19
	c-0.27,0.07-0.48,0.21-0.41,0.6c1.23,0.12,2.4-0.29,3.67-0.42c-0.09,0.21-0.15,0.35-0.21,0.49c-0.21,0.41-0.44,0.81-0.63,1.23
	c-0.14,0.3-0.06,0.56,0.14,0.63c0.26,0.09,0.6-0.04,0.72-0.3c0.05-0.11,0.05-0.24,0.09-0.35c0.31-0.84,0.97-1.21,1.78-1
	c-0.07,0.3-0.21,0.49-0.54,0.56c-0.17,0.03-0.33,0.14-0.48,0.25c-0.27,0.21-0.23,0.49,0.11,0.57c0.31,0.07,0.65,0.11,0.95,0.05
	c0.82-0.17,1.62-0.42,2.43-0.62c0.16-0.04,0.33-0.01,0.53-0.01c-0.15,0.66-0.5,0.98-1.13,1.03c-0.25,0.02-0.52,0.11-0.73,0.25
	c-0.15,0.09-0.28,0.32-0.28,0.49c0,0.11,0.24,0.22,0.38,0.34c-0.37,0.1-0.72,0.25-0.85,0.69c0.29,0.17,0.59,0.1,0.88,0.06
	c0.31-0.04,0.6-0.04,0.86,0.19c-0.09,0.35-0.47,0.69-0.08,1.1c0.32-0.09,0.54-0.21,0.63-0.57c0.08-0.3,0.27-0.56,0.41-0.84
	c0.04,0.02,0.09,0.04,0.13,0.06c-0.21,0.49-0.41,0.97-0.62,1.46c-0.03,0.07-0.1,0.14-0.1,0.22c-0.01,0.15-0.02,0.32,0.05,0.44
	c0.04,0.06,0.25,0.04,0.37,0.01c0.62-0.16,0.97-0.6,1.2-1.17c0.42-1.07,0.99-2.06,1.69-2.96c1.09-1.41,2.17-2.84,3.44-4.11
	c0.85-0.85,1.77-1.55,2.82-2.11c0.16-0.08,0.31-0.19,0.46-0.29c0.18-0.12,0.33-0.26,0.27-0.49c-0.06-0.25-0.21-0.46-0.48-0.46
	c-0.27,0-0.34-0.14-0.42-0.34c-0.14-0.34-0.24-0.69-0.44-0.99c-0.73-1.1-1.19-2.33-1.72-3.52c-0.23-0.51-0.42-1.05-0.5-1.6
	c-0.15-1.13,0.32-2.23,0.23-3.37c-0.01-0.11,0.07-0.23,0.1-0.35c0.06-0.21,0.13-0.43,0.16-0.64c0.04-0.38,0.01-0.76,0.21-1.11
	c0.06-0.1-0.01-0.35-0.1-0.43c-0.25-0.24-0.25-0.53-0.31-0.83c-0.08-0.41-0.17-0.83-0.23-1.24c-0.05-0.33-0.17-0.66-0.03-0.98
	c0.07-0.02,0.11-0.05,0.14-0.04c0.08,0.01,0.15,0.04,0.23,0.06c0.67,0.26,1.2,0.73,1.69,1.23c0.7,0.72,1.32,1.52,2.01,2.24
	c0.34,0.35,0.57,0.67,0.27,1.11c0.03,0.07,0.04,0.12,0.06,0.15c0.28,0.42,0.52,0.87,1.18,0.69c0.19-0.05,0.33,0.18,0.28,0.37
	c-0.1,0.36,0.09,0.47,0.37,0.56c0.11,0.04,0.23,0.08,0.32,0.16c0.44,0.43,0.84,0.89,1.22,1.38c0.58,0.76,1.2,1.52,1.9,2.17
	c0.84,0.79,1.8,1.45,2.68,2.21c0.51,0.44,1.01,0.92,1.43,1.46c0.65,0.83,1.21,1.74,1.95,2.52c0.98,1.03,2.09,1.74,3.53,1.87
	c0.06,0.01,0.12,0.01,0.17,0.05c0.46,0.32,0.91,0.64,1.35,0.96c-0.47,0.56-0.92,1.07-1.33,1.61c-0.21,0.27-0.36,0.57-0.52,0.87
	c-0.1,0.19-0.16,0.41-0.26,0.61c-0.31,0.58-0.63,1.16-0.96,1.73c-0.6,1.02-1.2,2.04-1.83,3.04c-0.21,0.34-0.51,0.61-0.76,0.93
	c-0.28,0.37-0.22,0.67,0.16,0.91c0.14,0.08,0.28,0.16,0.43,0.21c0.57,0.21,0.89,0.09,1.15-0.45c0.51-1.1,1.18-2.1,1.9-3.08
	c0.7-0.95,1.46-1.87,2.19-2.8c0.11-0.14,0.22-0.29,0.52-0.4c-0.27,0.36-0.48,0.61-0.66,0.87c-0.77,1.08-1.53,2.16-2.3,3.24
	c-0.17,0.24-0.37,0.47-0.54,0.72c-0.2,0.29-0.16,0.51,0.08,0.68c0.3,0.21,0.49,0.18,0.71-0.12c0.06-0.08,0.1-0.17,0.16-0.28
	c0.18,0.04,0.35,0.07,0.55,0.12c-0.07,0.22-0.13,0.38-0.18,0.55c-0.06,0.22,0.01,0.44,0.21,0.5c0.16,0.05,0.38-0.02,0.55-0.09
	c0.08-0.04,0.11-0.2,0.16-0.31c0.21-0.4,0.42-0.8,0.63-1.2c0.1,0.14,0.09,0.25,0.1,0.36c0.03,0.33,0.17,0.43,0.48,0.33
	c0.13-0.04,0.26-0.12,0.35-0.22c0.18-0.21,0.35-0.44,0.51-0.67c0.18-0.25,0.32-0.56,0.76-0.61c-0.19,0.35-0.35,0.67-0.53,0.97
	c-0.36,0.59-0.35,0.73,0.16,1.22c-0.03,0.15-0.07,0.29-0.12,0.52c0.89,0.06,1.53-0.61,2.36-0.66c-0.05,0.23-0.09,0.41-0.13,0.59
	c0.44,0.42,0.98,0.48,1.6,0.51c-0.11,0.15-0.17,0.31-0.28,0.38c-0.18,0.12-0.4,0.19-0.6,0.27c-1.07,0.45-2.14,0.89-3.21,1.35
	c-0.27,0.12-0.56,0.25-0.54,0.72c0.19,0.01,0.39,0.07,0.55,0.02c0.88-0.27,1.76-0.56,2.63-0.87c0.52-0.18,1.03-0.41,1.58-0.63
	c0.02,0.38,0.04,0.71,0.05,1.06c-0.28,0.18-0.59,0.34-0.85,0.55c-0.11,0.09-0.18,0.32-0.14,0.46c0.05,0.19,0.26,0.24,0.46,0.16
	c0.15-0.06,0.3-0.12,0.45-0.18c0.18-0.08,0.36-0.17,0.53-0.25c0.23,0.19,0.42,0.36,0.61,0.52c-0.16,0.43-0.37,0.79-0.77,0.99
	c-0.57,0.29-1.15,0.55-1.73,0.83c-0.18,0.09-0.36,0.19-0.53,0.29c-0.2,0.12-0.25,0.29-0.16,0.51c0.78,0.21,1.35-0.38,2.03-0.49
	c0.2,0.36,0.3,0.43,0.57,0.43c0.3,0,0.33-0.22,0.42-0.43c0.17-0.36,0.35-0.72,0.88-0.8c-0.24,0.43-0.47,0.81-0.67,1.19
	c-0.32,0.62-0.24,0.83,0.39,1.1c0.05,0.02,0.1,0.06,0.14,0.09c0,0.05,0.01,0.09,0.01,0.13c-0.02,0.24-0.24,0.56,0.09,0.69
	c0.14,0.06,0.4-0.15,0.63-0.25c0.01,0.08,0.03,0.19,0.05,0.3c0.06,0.27,0.26,0.34,0.5,0.32c0.25-0.02,0.37-0.18,0.46-0.41
	c0.48-1.3,0.88-2.63,0.95-4.03c0.01-0.28,0.08-0.48,0.33-0.66c0.27-0.2,0.29-0.43,0.06-0.66c-0.22-0.22-0.24-0.45-0.23-0.71
	c0-0.1-0.02-0.21,0.01-0.3c0.28-0.85,0.15-1.71,0.12-2.58c-0.01-0.28-0.01-0.56-0.04-0.84c-0.11-0.94-0.27-1.87-0.33-2.81
	c-0.07-0.98,0.02-1.98-0.09-2.95c-0.11-1.01,0.02-1.95,0.28-2.92c0.32-1.22,0.88-2.32,1.49-3.42c0.25-0.45,0.5-0.85,0.98-1.07
	c0.09-0.04,0.17-0.11,0.24-0.18c0.3-0.27,0.3-0.49-0.02-0.73c-0.19-0.14-0.31-0.31-0.18-0.5c0.17-0.26,0.11-0.7,0.6-0.73
	c0.38-0.02,0.63,0.21,0.93,0.35c1.61,0.75,2.49,2.06,2.89,3.73c0.15,0.62,0.25,1.26,0.34,1.9c0.15,1,0.6,1.81,1.39,2.45
	c0.5,0.4,1.03,0.79,1.42,1.29c0.76,0.99,1.77,1.68,2.7,2.46c0.51,0.42,1.08,0.77,1.55,1.23c0.95,0.93,1.86,1.9,2.77,2.86
	c0.39,0.41,0.78,0.81,1.12,1.26c0.36,0.48,0.67,0.99,1,1.5c0.15,0.23,0.29,0.48,0.6,0.4c0.25-0.06,0.4,0.03,0.59,0.17
	c0.28,0.2,0.58,0.47,1.06,0.24C134.98,57.78,134.98,57.55,134.87,57.44z M108.91,9.86c0.06,0.1,0.13,0.21,0.19,0.31
	c-0.1-0.07-0.2-0.15-0.29-0.22C108.84,9.91,108.87,9.89,108.91,9.86z M3.29,43.68c0.08-0.14,0.16-0.28,0.24-0.43
	C3.55,43.47,3.46,43.6,3.29,43.68z M5.76,43.77c-0.03-0.04-0.06-0.07-0.1-0.11c0.11-0.1,0.21-0.19,0.32-0.29
	c0.02,0.02,0.05,0.04,0.07,0.06C5.95,43.56,5.86,43.67,5.76,43.77z M8.67,44.46c-0.03-0.03-0.06-0.06-0.08-0.09
	c0.08-0.07,0.17-0.14,0.25-0.21c0.02,0.02,0.04,0.04,0.05,0.06C8.81,44.3,8.74,44.38,8.67,44.46z M14.41,38.41
	c-0.04-0.03-0.07-0.07-0.11-0.1c0.22-0.27,0.45-0.54,0.67-0.8c0.04,0.03,0.08,0.06,0.11,0.09C14.87,37.87,14.64,38.14,14.41,38.41z
	 M19.3,61.94c-0.27,0.06-0.55,0.1-0.89,0.17c0.48-0.62,0.52-0.64,1.37-0.81C19.76,61.77,19.7,61.86,19.3,61.94z M20.51,63.04
	c-0.23,0.07-0.45,0.13-0.7,0.17c0.38-0.25,0.45-0.91,1.1-0.86C20.99,62.73,20.84,62.94,20.51,63.04z M19.59,60.32
	c0.37-0.52,0.6-1.09,1.36-1.09C20.81,60,20.27,60.18,19.59,60.32z M20.99,61.37c0.2-0.59,0.22-0.6,0.81-0.65
	C21.69,61.29,21.69,61.29,20.99,61.37z M27.32,52.71c0.03,0.03,0.07,0.07,0.1,0.1c-0.1,0.09-0.2,0.18-0.3,0.27
	c-0.02-0.02-0.04-0.04-0.07-0.07C27.14,52.91,27.23,52.81,27.32,52.71z M22.84,58.76c-0.28,0.66-0.28,0.66-0.68,0.71
	C22.38,58.83,22.38,58.82,22.84,58.76z M22.29,63.98c0.09-0.16,0.18-0.31,0.27-0.47c0.04,0.03,0.08,0.06,0.12,0.09
	C22.55,63.72,22.42,63.85,22.29,63.98z M22.11,62.53c0.04-0.47,0.34-0.62,0.77-0.65C22.49,62.5,22.48,62.51,22.11,62.53z
	 M23.12,60.84c-0.12-0.55,0.18-0.81,1.02-0.91C24.02,60.73,23.94,60.81,23.12,60.84z M24.11,58.81c0.08-0.46,0.39-0.65,0.86-0.76
	C24.78,58.75,24.7,58.82,24.11,58.81z M25.18,63.3c-0.05-0.03-0.09-0.06-0.14-0.09c0.11-0.2,0.23-0.4,0.34-0.6
	c0.06,0.04,0.12,0.07,0.18,0.11C25.44,62.92,25.31,63.11,25.18,63.3z M25.61,56.93c0.04-0.58,0.53-0.66,0.76-0.96
	c0.23-0.31,0.51-0.62,0.96-0.69C26.79,55.82,26.44,56.56,25.61,56.93z M26.15,64.26c-0.02-0.29,0.08-0.46,0.48-0.5
	C26.42,63.98,26.28,64.12,26.15,64.26z M26.09,61.44c0.06-0.39,0.25-0.6,0.67-0.64C26.67,61.16,26.49,61.37,26.09,61.44z
	 M27.01,62.6c0.13-0.38,0.3-0.63,0.73-0.63C27.63,62.34,27.47,62.6,27.01,62.6z M27.45,59.45c0.03-0.47,0.4-0.66,0.71-0.88
	C27.98,58.91,27.82,59.27,27.45,59.45z M29.59,50.39c-0.02-0.02-0.03-0.04-0.05-0.05c0.1-0.11,0.2-0.22,0.32-0.35
	c0.02,0.04,0.05,0.08,0.04,0.08C29.8,50.18,29.7,50.28,29.59,50.39z M30.2,58.19c-0.04-0.05-0.09-0.1-0.13-0.14
	c0.16-0.15,0.31-0.3,0.55-0.54C30.6,57.96,30.26,57.95,30.2,58.19z M31.81,55.99c0.37-0.39,0.64-0.68,0.92-0.97
	c0.04,0.03,0.07,0.05,0.11,0.08C32.49,55.72,32.49,55.72,31.81,55.99z M68.86,61.09c0.02,0.03,0.06,0.05,0.07,0.08
	c0,0.03-0.03,0.06-0.05,0.09c-0.03-0.02-0.06-0.03-0.09-0.05C68.81,61.16,68.83,61.12,68.86,61.09z M67.62,61.48
	c-0.02-0.01-0.05-0.02-0.07-0.02c0.03-0.1,0.06-0.2,0.09-0.29c0.03,0.01,0.06,0.02,0.08,0.03C67.68,61.28,67.65,61.38,67.62,61.48z
	 M67.29,58.77c0.3,0.05,0.4,0.26,0.51,0.45c-0.24,0.06-0.44,0.12-0.68,0.18C67.18,59.2,67.23,58.99,67.29,58.77z M43.52,80.63
	c-0.03-0.04-0.07-0.08-0.1-0.12c0.71-0.62,1.42-1.23,2.12-1.85c0.05,0.05,0.09,0.09,0.14,0.14C44.96,79.42,44.24,80.02,43.52,80.63z
	 M46.14,78.38c-0.04-0.04-0.07-0.08-0.11-0.11c0.18-0.17,0.37-0.35,0.55-0.52c0.03,0.03,0.07,0.06,0.1,0.1
	C46.51,78.02,46.32,78.2,46.14,78.38z M51.26,79.34c-0.43,0.56-0.83,1.15-1.75,1.21C50.1,80.02,50.54,79.48,51.26,79.34z
	 M49.02,78.63c0.16-0.19,0.33-0.39,0.49-0.58C49.43,78.42,49.42,78.43,49.02,78.63z M48.99,78.66c-0.05,0.24-0.17,0.38-0.51,0.32
	C48.57,78.69,48.74,78.62,48.99,78.66z M47.82,82.6c0.26-0.66,0.72-0.79,1.37-0.86C48.83,82.27,48.31,82.32,47.82,82.6z
	 M49.16,83.64c0.21-0.46,0.4-0.84,1.02-0.81C49.93,83.25,49.72,83.62,49.16,83.64z M49.88,85.34c0.02-0.46,0.07-0.54,0.54-0.82
	C50.25,84.77,50.09,85.02,49.88,85.34z M50.75,81.62c0.33-0.54,0.33-0.54,0.8-0.64C51.18,81.54,51.18,81.54,50.75,81.62z
	 M52.76,79.46c-0.03-0.03-0.05-0.06-0.08-0.09c0.06-0.04,0.12-0.09,0.18-0.13c0.02,0.02,0.04,0.03,0.05,0.05
	C52.86,79.34,52.81,79.4,52.76,79.46z M54.63,83.68c-0.04-0.04-0.08-0.07-0.11-0.11c0.29-0.27,0.41-0.69,0.9-0.74
	C55.15,83.12,54.89,83.4,54.63,83.68z M56.59,81.22c-0.02-0.02-0.04-0.04-0.06-0.06c0.07-0.07,0.13-0.14,0.2-0.21
	c0.02,0.02,0.04,0.04,0.06,0.06C56.72,81.08,56.65,81.15,56.59,81.22z M56.38,76.76c0.28-0.43,0.55-0.88,1-1.16
	C57.14,76.07,56.84,76.48,56.38,76.76z M55.62,73.44c0.55-0.57,0.91-1.35,1.84-1.66C57,72.61,56.43,73.14,55.62,73.44z M60.53,76.3
	c0.14-0.1,0.26-0.19,0.38-0.28c0.02,0.06,0.05,0.11,0.04,0.12C60.85,76.25,60.8,76.46,60.53,76.3z M100.89,73.98
	c-0.59-0.09-0.7-0.2-0.79-0.83C100.4,73.46,100.61,73.69,100.89,73.98z M99.08,71.69c0.11,0.16,0.16,0.23,0.24,0.35
	c-0.19,0.06-0.33,0.1-0.6,0.19C98.87,72.01,98.95,71.89,99.08,71.69z M98.05,69.69c0.16,0.29,0.3,0.54,0.49,0.88
	c-0.26,0.07-0.41,0.11-0.57,0.16c-0.03-0.07-0.07-0.12-0.06-0.17C97.94,70.29,97.99,70.02,98.05,69.69z M94.84,65.77
	c0.16,0.17,0.3,0.32,0.47,0.5c-0.08,0.13-0.15,0.24-0.21,0.35c-0.06-0.02-0.13-0.03-0.13-0.04C94.96,66.32,94.48,66.16,94.84,65.77z
	 M92.98,68.75c-0.01,0.01-0.07,0.01-0.1,0.01c-0.01-0.03-0.03-0.05-0.04-0.08c0.06-0.03,0.12-0.07,0.18-0.1
	C93,68.63,93,68.69,92.98,68.75z M92.87,65.36c0.12-0.15,0.28-0.27,0.45-0.43c0.09,0.04,0.15,0.06,0.19,0.1
	c0.04,0.03,0.07,0.09,0.09,0.1c-0.35,0.25-0.69,0.5-1.06,0.76C92.51,65.6,92.75,65.51,92.87,65.36z M90.83,66.31
	c0.04,0.03,0.08,0.06,0.12,0.09c-0.17,0.21-0.33,0.42-0.5,0.63C90.43,66.69,90.69,66.54,90.83,66.31z M89.69,59.64
	c-0.13,0.09-0.27,0.19-0.41,0.29C89.33,59.63,89.33,59.63,89.69,59.64z M89.47,64.4c0.04,0.03,0.07,0.05,0.11,0.08
	c-0.47,0.55-0.64,1.37-1.59,1.62C88.54,65.48,89.01,64.94,89.47,64.4z M88.15,63.45c0.04,0.04,0.09,0.07,0.13,0.11
	c-0.17,0.22-0.34,0.44-0.52,0.65c-0.05-0.04-0.09-0.07-0.14-0.11C87.81,63.88,87.98,63.66,88.15,63.45z M85.81,68.86
	c0.37-0.49,0.51-1.24,1.34-1.24C86.76,68.1,86.51,68.71,85.81,68.86z M86.81,59.47c0.04,0.03,0.07,0.06,0.11,0.09
	c-0.09,0.12-0.18,0.24-0.27,0.36c-0.03-0.02-0.06-0.04-0.09-0.06C86.65,59.73,86.73,59.6,86.81,59.47z M86.91,65.63
	c-0.37,0.65-0.72,1.18-1.34,1.47C85.94,66.59,86.12,65.89,86.91,65.63z M85.65,61.22c0.02,0.02,0.05,0.04,0.07,0.06
	c-0.05,0.06-0.11,0.13-0.16,0.19c-0.02-0.02-0.05-0.04-0.07-0.05C85.54,61.35,85.59,61.29,85.65,61.22z M85.73,63.03
	c0.04,0.02,0.07,0.04,0.11,0.06c-0.08,0.14-0.17,0.28-0.25,0.42c-0.05-0.03-0.09-0.06-0.14-0.09
	C85.54,63.29,85.64,63.16,85.73,63.03z M84.17,65.19c0.04,0.02,0.07,0.05,0.11,0.07c-0.16,0.23-0.32,0.45-0.47,0.68
	c-0.04-0.03-0.07-0.05-0.11-0.08C83.72,65.56,83.98,65.4,84.17,65.19z M84.66,68.36c-0.35,0.95-0.45,1.05-0.99,1.17
	C83.9,69.07,84.12,68.67,84.66,68.36z M83.18,59.37c0.06,0.05,0.12,0.1,0.18,0.14c-0.17,0.12-0.33,0.24-0.5,0.36
	c-0.01-0.01-0.03-0.02-0.04-0.04C82.94,59.68,83.06,59.53,83.18,59.37z M82.17,62.63c-0.08,0.09-0.17,0.19-0.25,0.28
	c0.04-0.11,0.09-0.23,0.13-0.34C82.1,62.58,82.13,62.61,82.17,62.63z M81.87,62.98c-0.14,0.22-0.28,0.43-0.41,0.65
	c-0.04-0.03-0.08-0.07-0.12-0.1C81.51,63.35,81.69,63.16,81.87,62.98z M72.12,68.18c-0.13-0.09-0.23-0.17-0.41-0.31
	c0.72-0.74,1.56-1.27,2.31-1.9c-0.06,0.11-0.1,0.23-0.18,0.32C73.27,66.92,72.7,67.54,72.12,68.18z M76.05,65.77
	c-0.03-0.03-0.06-0.06-0.09-0.1c0.11-0.1,0.22-0.19,0.33-0.29c0.02,0.02,0.05,0.04,0.07,0.07C76.26,65.56,76.16,65.66,76.05,65.77z
	 M76.88,66.7c0.25-0.67,0.51-0.84,1.56-1C78.03,66.26,77.57,66.65,76.88,66.7z M78.66,64.6c0.56-0.87,0.99-1.24,1.55-1.35
	C79.91,63.92,79.56,64.5,78.66,64.6z M80.75,66.48c-0.23,0.28-0.47,0.57-0.7,0.85c-0.04-0.03-0.08-0.06-0.12-0.1
	c0.23-0.29,0.46-0.57,0.7-0.86C80.67,66.41,80.71,66.45,80.75,66.48z M80.49,59.85c-0.05,0.15-0.06,0.24-0.11,0.28
	c-0.76,0.74-1.54,1.47-2.3,2.2c-0.23,0.22-0.42,0.48-0.65,0.7c-0.42,0.4-0.84,0.79-1.28,1.17c-0.57,0.51-1.14,1-1.72,1.5
	c-0.11,0.09-0.24,0.15-0.37,0.22c0.24-0.33,0.42-0.73,0.73-0.97c1.39-1.05,2.54-2.33,3.82-3.49C79.2,60.94,79.82,60.43,80.49,59.85z
	 M83.38,40.84c0.52,0.5,0.33,0.86-0.38,1.45C83.02,41.75,83.61,41.4,83.38,40.84z M103,51.56c-0.22,0.3-0.3,0.74-0.87,0.88
	c0.51-0.7,0.95-1.3,1.41-1.92C103.54,50.8,103.55,50.81,103,51.56z M113.56,32.91c0.24,0.33,0.24,0.33-0.21,0.47
	C113.42,33.23,113.48,33.09,113.56,32.91z M109.86,26.03c0.04,0.02,0.09,0.05,0.13,0.07c-0.2,0.51-0.46,1-0.77,1.46
	c-0.04-0.03-0.09-0.05-0.13-0.08C109.34,26.99,109.6,26.51,109.86,26.03z M109.96,28.52c-0.22,0.35-0.44,0.7-0.66,1.05
	c-0.04-0.02-0.09-0.05-0.13-0.07c0.22-0.35,0.44-0.71,0.66-1.06C109.88,28.47,109.92,28.5,109.96,28.52z M108.69,26.08
	c-0.38,0.73-0.76,1.46-1.14,2.19C107.52,27.82,108.05,26.79,108.69,26.08z M107.71,30.21c-0.04-0.03-0.08-0.06-0.11-0.09
	c0.1-0.16,0.2-0.32,0.35-0.56C108.03,29.94,107.94,30.11,107.71,30.21z M106.71,20.93c-0.07,0.13-0.11,0.2-0.15,0.27
	c-0.01-0.06-0.03-0.12-0.03-0.19C106.54,21,106.6,20.98,106.71,20.93z M107.03,24.72c-0.23,0.41-0.47,0.81-0.76,1.33
	C106.33,25.55,106.63,24.99,107.03,24.72z M106.49,27.81c-0.15,0.33-0.3,0.66-0.44,0.99c-0.04-0.02-0.08-0.04-0.12-0.06
	c0.16-0.32,0.32-0.65,0.48-0.97C106.43,27.78,106.46,27.79,106.49,27.81z M106.04,22.41c0.04,0.04,0.08,0.08,0.11,0.12
	c-0.26,0.53-0.53,1.07-0.78,1.6c-0.12,0.26-0.34,0.36-0.7,0.42c0.34-0.67,0.63-1.27,0.96-1.85
	C105.71,22.57,105.9,22.51,106.04,22.41z M105.53,27.4c-0.09,0.16-0.18,0.31-0.26,0.47c-0.04-0.02-0.08-0.05-0.11-0.07
	c0.09-0.15,0.19-0.3,0.28-0.45C105.46,27.36,105.5,27.38,105.53,27.4z M103.92,20.06c0.18-0.7,0.74-1.16,1.07-1.75
	C104.73,18.95,104.43,19.57,103.92,20.06z M104.43,25.72c-0.14,0.98-0.61,1.44-1.75,1.6C103.19,26.6,103.6,25.94,104.43,25.72z
	 M104.22,13.91c-0.11,0.33-0.17,0.69-0.53,0.86C103.67,14.37,103.99,14.16,104.22,13.91z M103.66,14.79
	c-0.09,0.15-0.17,0.3-0.26,0.45c-0.04-0.02-0.07-0.05-0.11-0.07C103.36,15,103.44,14.83,103.66,14.79z M102.91,23.83
	c-0.11,0.53-0.49,0.89-0.8,1.3C102.31,24.66,102.45,24.14,102.91,23.83z M101.37,23.61c0.32-0.73,0.45-0.9,0.91-1.18
	C102.14,22.96,101.8,23.24,101.37,23.61z M99.24,19.78c0.98-0.86,1.94-1.74,2.59-2.89c0.13-0.23,0.26-0.46,0.72-0.5
	c-0.38,0.52-0.72,0.93-1.01,1.38c-0.53,0.81-1.15,1.53-1.89,2.14c-0.3,0.25-0.64,0.44-1.01,0.61C98.74,20.19,99,19.99,99.24,19.78z
	 M100.21,26.18c-0.21,0.28-0.54,0.36-0.96,0.39c0.38-0.57,0.69-1.1,1.07-1.58c0.15-0.19,0.45-0.28,0.67-0.41
	c0.05,0.06,0.1,0.11,0.15,0.17C100.84,25.22,100.55,25.72,100.21,26.18z M100.82,27.08c-0.02,0.61-0.45,1.29-1,1.45
	C100.18,28.01,100.49,27.56,100.82,27.08z M99.26,27.58c-0.39,0.58-0.69,1.08-1.04,1.54c-0.11,0.15-0.36,0.19-0.59,0.22
	C97.99,28.63,98.05,27.71,99.26,27.58z M98.49,23.9c0.03,0.03,0.06,0.05,0.09,0.08c-0.26,0.36-0.26,0.93-0.83,1.03
	c-0.04-0.04-0.07-0.08-0.11-0.12C97.92,24.56,98.21,24.23,98.49,23.9z M97.7,21.46c0.08,0.37-0.12,0.61-0.73,0.77
	C97.21,21.99,97.44,21.74,97.7,21.46z M96.43,24.64c-0.47,0.52-0.74,1.26-1.54,1.42C95.36,25.54,95.74,24.92,96.43,24.64z
	 M69.14,9.74c0.03,0.03,0.05,0.07,0.08,0.1c-0.52,0.57-1.15,1.03-1.78,1.47c-0.03-0.03-0.05-0.06-0.08-0.1
	C67.95,10.72,68.54,10.23,69.14,9.74z M68.13,12.03c-0.27,0.51-0.58,0.95-1.24,0.94C67.3,12.66,67.71,12.35,68.13,12.03z
	 M66.86,9.09c-0.2,0.43-0.52,0.64-1.12,0.58C66.19,9.44,66.52,9.26,66.86,9.09z M65.94,14.25c-0.67,0.82-1.49,1.26-2.47,1.4
	C63.87,14.97,64.44,14.64,65.94,14.25z M65.34,12.85c-0.43,0.27-0.85,0.55-1.34,0.86C64.21,13.27,64.77,12.89,65.34,12.85z
	 M64.46,10.77c-0.55,0.74-1.39,1.08-2.15,1.53C62.85,11.53,63.62,11.1,64.46,10.77z M61.16,23.2c-0.04,0.07-0.09,0.13-0.14,0.2
	c-0.39-0.27-0.77-0.52-1.11-0.76c0.48-0.6,0.95-1.19,1.41-1.76c0.31,0.08,0.57,0.15,0.89,0.23c-0.16,0.18-0.33,0.34-0.47,0.53
	c-0.09,0.12-0.25,0.32-0.22,0.4C61.78,22.56,61.35,22.84,61.16,23.2z M60.46,20.08c0.09-0.6,0.21-0.71,0.95-0.79
	C61.03,19.6,60.96,20.07,60.46,20.08z M61.46,18.32c0.19-0.49,0.45-0.78,0.64-1.11c0.25-0.43,0.66-0.37,1.17-0.48
	c-0.37,0.49-0.63,0.9-0.96,1.23C62.14,18.13,61.83,18.17,61.46,18.32z M62.31,15.25c-0.24,0.31-0.49,0.62-0.73,0.93
	c-0.04-0.03-0.08-0.07-0.12-0.1c0.26-0.3,0.52-0.59,0.77-0.89C62.25,15.2,62.28,15.22,62.31,15.25z M62.08,13.77
	c-0.33,0.57-0.38,0.61-0.93,0.69C61.45,14.24,61.74,14.02,62.08,13.77z M60.82,17.34c-0.25,0.4-0.46,0.78-0.7,1.14
	c-0.16,0.25-0.42,0.26-0.7,0.25C59.76,17.88,60.21,17.41,60.82,17.34z M59.74,21.18c-0.04,0.17-0.04,0.19-0.05,0.2
	c-0.54,0.85-0.56,0.85-1.43,0.06C58.77,21.36,59.22,21.28,59.74,21.18z M60.3,15.76c-0.32,0.35-0.49,0.87-1.07,0.93
	C59.41,16.1,59.74,15.79,60.3,15.76z M58.21,17.87c0.08-0.12,0.33-0.11,0.5-0.16c0.02,0.04,0.04,0.07,0.06,0.11
	c-0.27,0.4-0.52,0.83-0.83,1.2c-0.11,0.13-0.36,0.14-0.62,0.23C57.44,18.6,57.91,18.28,58.21,17.87z M56.82,17.91
	c0.03,0.02,0.05,0.05,0.08,0.07c-0.21,0.45-0.43,0.89-0.63,1.35c-0.25,0.56-0.09,0.84,0.51,0.8c0.62-0.04,1.23-0.17,1.85-0.27
	c0.21-0.03,0.43-0.08,0.71-0.13c-0.17,0.64-0.63,0.78-1.05,0.94c-0.13,0.05-0.32,0.02-0.4,0.11c-0.35,0.37-0.63,0.16-0.94-0.05
	c-0.31-0.21-0.64-0.41-0.98-0.57c-0.33-0.15-0.53-0.41-0.72-0.72C55.77,18.91,56.29,18.41,56.82,17.91z M46.57,28.07
	c-0.41-0.18-0.57-0.49-0.63-1.18C46.28,27.02,46.45,27.33,46.57,28.07z M51.33,35.62c-0.43,0.18-0.75,0.31-1.14,0.47
	c-0.17-0.36-0.32-0.69-0.5-1.09c0.34-0.18,0.64-0.34,1.01-0.54C50.91,34.85,51.1,35.19,51.33,35.62z M50.71,31.89
	c0.11-0.08,0.2-0.14,0.37-0.26c0.07,0.37,0.13,0.68,0.18,0.98c-0.03,0.02-0.07,0.03-0.1,0.05C51.01,32.42,50.87,32.17,50.71,31.89z
	 M51.63,36.44c0.09,0.25,0.15,0.41,0.22,0.64c-0.37,0.14-0.71,0.27-1.1,0.42c-0.1-0.22-0.18-0.39-0.28-0.59
	C50.87,36.74,51.21,36.61,51.63,36.44z M50.22,31.02c-0.17-0.31-0.32-0.57-0.46-0.83c-0.03-0.05-0.02-0.12-0.02-0.17
	c0.29-0.12,0.29-0.12,0.81,0.69C50.46,30.8,50.36,30.89,50.22,31.02z M50.18,33.65c-0.3,0.17-0.59,0.33-0.94,0.52
	c-0.18-0.42-0.33-0.76-0.5-1.16c0.26-0.15,0.49-0.29,0.79-0.46C49.76,32.94,49.95,33.27,50.18,33.65z M48.92,35.4
	c0.16,0.4,0.29,0.72,0.43,1.09c-0.47,0.22-0.91,0.42-1.41,0.65c-0.2-0.33-0.38-0.62-0.59-0.98C47.87,35.91,48.36,35.67,48.92,35.4z
	 M46.98,35.32c-0.1-0.33-0.21-0.62-0.26-0.92c-0.02-0.13,0.06-0.33,0.17-0.4c0.29-0.2,0.62-0.35,0.95-0.52
	c0.16,0.21,0.31,0.4,0.44,0.6c0.22,0.35,0.16,0.53-0.2,0.71C47.74,34.95,47.39,35.12,46.98,35.32z M49.21,29.21
	c-0.79-1.15-0.79-1.15-0.56-1.48c0.25,0.4,0.49,0.77,0.71,1.15C49.39,28.93,49.28,29.06,49.21,29.21z M48.94,31.89
	c-0.17,0.1-0.35,0.2-0.61,0.35c-0.19-0.4-0.36-0.74-0.55-1.12C48.31,30.87,48.5,31,48.94,31.89z M47.91,27
	c-0.17-0.28-0.34-0.55-0.52-0.83c0.44,0.09,0.47,0.47,0.68,0.72C48.02,26.93,47.96,26.96,47.91,27z M47.76,30
	c-0.1,0.07-0.19,0.14-0.33,0.23c-0.25-0.44-0.49-0.86-0.73-1.27c0.21-0.27,0.39-0.23,0.53,0.01C47.42,29.29,47.58,29.63,47.76,30z
	 M46.58,24.37c0.24,0.23,0.53,0.44,0.5,0.94C46.74,25.01,46.64,24.7,46.58,24.37z M46.95,31.64c0.17,0.32,0.35,0.65,0.55,1.01
	c-0.33,0.21-0.65,0.41-1.01,0.63c-0.08-0.17-0.13-0.27-0.17-0.38C46,32.02,46,32.02,46.95,31.64z M46.06,29.73
	c0.16,0.32,0.32,0.64,0.51,1.02c-0.12,0.09-0.21,0.18-0.31,0.23c-0.12,0.07-0.24,0.11-0.41,0.19c-0.16-0.41-0.32-0.79-0.45-1.19
	c-0.06-0.18-0.09-0.41,0.16-0.51C45.83,29.35,45.95,29.52,46.06,29.73z M45.13,32.59c0.11,0.35,0.23,0.72,0.37,1.14
	c-0.33,0.18-0.63,0.36-0.94,0.53C44.08,33.6,44.06,32.67,45.13,32.59z M44.09,30.4c0.01-0.08,0.1-0.15,0.24-0.32
	c0.2,0.49,0.38,0.88,0.51,1.29c0.09,0.3-0.02,0.38-0.58,0.5C44.08,31.39,44.03,30.9,44.09,30.4z M45.72,34.58
	c0.14,0.42,0.25,0.75,0.38,1.14c-0.46,0.19-0.88,0.37-1.39,0.59c-0.07-0.41-0.13-0.77-0.19-1.16
	C44.93,34.95,45.29,34.78,45.72,34.58z M45.55,25.79c0.02,0.02,0,0.06-0.01,0.23c-0.07-0.2-0.11-0.28-0.14-0.37
	C45.45,25.7,45.51,25.74,45.55,25.79z M44.87,27.38c0.27,0.43,0.48,0.81,0.49,1.32C44.93,28.55,44.73,27.98,44.87,27.38z
	 M44.3,25.56c0.1,0.3,0.21,0.6,0.31,0.9c-0.39-0.18-0.42-0.52-0.49-0.84C44.19,25.6,44.25,25.58,44.3,25.56z M43.98,29.13
	c-0.02-0.02,0-0.07,0.01-0.14c0.04,0.09,0.08,0.16,0.11,0.22C44.05,29.19,44,29.17,43.98,29.13z M43.91,23.95
	c0.03,0.19,0.06,0.38,0.09,0.57c-0.06,0-0.11,0.01-0.17,0.01c-0.01-0.19-0.02-0.38-0.03-0.57C43.84,23.96,43.88,23.96,43.91,23.95z
	 M42.73,28.4c0.26,0.53,0.29,1.2,0.07,1.5C42.57,29.38,42.74,28.88,42.73,28.4z M42.77,30.95c0-0.04,0.13-0.06,0.26-0.13
	c0.05,0.5,0.1,0.95,0.13,1.4c0.02,0.31-0.22,0.33-0.54,0.43C42.67,32.02,42.71,31.48,42.77,30.95z M42.45,34.15
	c0.07-0.66,0.08-0.66,0.84-0.74c0.06,0.41,0.12,0.82,0.18,1.29c-0.33,0.16-0.66,0.32-1.11,0.54C42.4,34.77,42.42,34.46,42.45,34.15z
	 M42.95,35.83c0.2-0.08,0.4-0.18,0.68-0.31c0.05,0.42,0.1,0.78,0.15,1.16c-0.52,0.22-0.99,0.42-1.51,0.65
	c-0.02-0.19-0.04-0.34-0.04-0.49C42.24,36.09,42.24,36.1,42.95,35.83z M41.58,31.57c-0.04,0.57-0.07,1.06-0.11,1.61
	C41.32,32.7,41.36,32.05,41.58,31.57z M40.98,34.24c0.02-0.07,0.19-0.1,0.39-0.19c-0.03,0.56-0.04,1.03-0.1,1.49
	c-0.03,0.28-0.07,0.27-0.84,0.48C40.62,35.39,40.79,34.81,40.98,34.24z M40.04,22.98c0.1-0.12,0.33-0.15,0.53-0.16
	c-0.35,0.7-0.59,1.47-1.61,1.7C39.36,23.95,39.68,23.45,40.04,22.98z M34.92,30.19c0.15-0.91,0.86-1.47,2.35-1.77
	C36.73,29.37,36.13,30.19,34.92,30.19z M35.63,30.98c-0.16,0.37-0.26,0.63-0.37,0.88c-0.1,0.22-0.23,0.43-0.29,0.66
	c-0.21,0.92-0.93,1.18-1.72,1.35c-0.27,0.06-0.54,0.12-0.91,0.2c0.54-0.82,1.02-1.6,1.54-2.35C34.28,31.15,34.91,31.1,35.63,30.98z
	 M35.59,26.97c0.1-0.12,0.19-0.23,0.29-0.35c0.03,0.04,0.06,0.07,0.1,0.11C35.85,26.81,35.72,26.89,35.59,26.97z M36.55,27.59
	c0.38-0.54,0.75-1.08,1.15-1.6c0.31-0.4,0.83-0.33,1.34-0.6c-0.19,0.69-0.48,1.24-0.87,1.59c-0.4,0.36-1.02,0.49-1.55,0.72
	C36.6,27.66,36.57,27.62,36.55,27.59z M36.14,32.34c0.2-0.44,0.4-0.87,0.6-1.31c0.28-0.61,0.72-0.99,1.46-1c0,0.12,0.01,0.23,0,0.35
	c-0.07,0.47-0.15,0.95-0.21,1.42c-0.02,0.2-0.08,0.34-0.28,0.42c-0.57,0.23-1.13,0.48-1.8,0.76C36.01,32.7,36.06,32.51,36.14,32.34z
	 M38.12,29c0.35-0.51,0.63-0.93,0.96-1.43c0.06,0.42,0.06,0.42-0.18,0.9C38.77,28.75,38.64,29.01,38.12,29z M38.73,33.39
	c0.06-0.59,0.37-0.94,1.01-1.01c0.1,0.5,0.1,1.03-0.19,1.42c-0.19,0.25-0.63,0.32-1,0.49C38.62,33.93,38.7,33.66,38.73,33.39z
	 M39.69,31.42c-0.15,0.09-0.33,0.12-0.57,0.2c0-0.22-0.03-0.42,0.01-0.59c0.1-0.43,0.23-0.85,0.36-1.27
	c0.1-0.33,0.37-0.39,0.73-0.43c-0.07,0.63-0.13,1.2-0.22,1.77C39.97,31.22,39.81,31.35,39.69,31.42z M40.17,28.24
	c0.05-0.1,0.1-0.2,0.15-0.29c0.03,0.02,0.06,0.03,0.1,0.05c-0.05,0.1-0.09,0.2-0.14,0.3C40.24,28.28,40.21,28.26,40.17,28.24z
	 M38.91,21.39c0.03,0.03,0.07,0.06,0.1,0.09c-0.28,0.42-0.52,0.86-0.84,1.24c-0.14,0.17-0.44,0.2-0.67,0.29
	c-0.02-0.05-0.05-0.1-0.07-0.14C37.89,22.35,38.34,21.81,38.91,21.39z M36.18,22.48c0.03,0.03,0.05,0.06,0.08,0.1
	c-0.18,0.15-0.37,0.29-0.55,0.44c-0.02-0.03-0.04-0.05-0.07-0.08C35.82,22.79,36,22.64,36.18,22.48z M36.89,24.18
	c-0.56,0.55-1.01,1.08-1.55,1.5c-0.27,0.21-0.7,0.2-1.11,0.3C34.9,24.86,35.8,24.23,36.89,24.18z M35.55,27.01
	c-0.17,0.74-0.73,1.3-1.59,1.46C34.55,27.91,34.99,27.4,35.55,27.01z M31.65,31.19c0.38-0.45,0.72-0.81,1.01-1.21
	c0.33-0.44,0.77-0.51,1.27-0.53C33.69,30.47,32.97,31.03,31.65,31.19z M33.31,25.09c-0.46,0.88-0.92,1.34-1.43,1.36
	C32.36,26,32.83,25.54,33.31,25.09z M32.92,27.3c0.24-0.3,0.6-0.26,1-0.21c-0.21,0.22-0.41,0.44-0.62,0.66
	c-0.26,0.28-0.54,0.54-0.76,0.84c-0.27,0.37-0.61,0.53-1.1,0.56C31.96,28.51,32.43,27.9,32.92,27.3z M35.1,51.38
	c-0.04-0.01-0.08-0.02-0.12-0.04c0.06-0.17,0.13-0.35,0.19-0.52c0.03,0.01,0.06,0.02,0.09,0.03C35.21,51.03,35.15,51.21,35.1,51.38z
	 M51.66,65.41c-0.12,0.12-0.36,0.12-0.55,0.17c-0.02-0.05-0.04-0.1-0.06-0.15c0.53-0.43,1.05-0.86,1.58-1.29
	c0.03,0.03,0.06,0.06,0.08,0.09C52.37,64.63,52.04,65.04,51.66,65.41z M51.88,63.52c-0.03-0.04-0.06-0.07-0.09-0.11
	c0.48-0.49,0.96-0.97,1.46-1.49c0.1,0.15,0.18,0.26,0.28,0.41C52.97,62.74,52.43,63.13,51.88,63.52z M54.96,64.34
	c-0.31,0.42-0.8,0.29-1.21,0.42c0.62-0.57,1.05-1.36,2.09-1.54C55.49,63.64,55.21,63.98,54.96,64.34z M55.59,60
	c-0.27,0.32-0.54,0.64-0.81,0.96c-0.24,0.28-0.31,0.29-0.68,0.02c0.02-0.05,0.02-0.12,0.05-0.16c0.46-0.52,0.91-1.06,1.41-1.55
	c0.14-0.13,0.41-0.13,0.63-0.18c0.02,0.05,0.04,0.1,0.07,0.15C56.03,59.49,55.8,59.75,55.59,60z M56.7,61.88
	c0.15-0.31,0.25-0.68,0.75-0.72C57.29,61.55,57.13,61.84,56.7,61.88z M56.6,58.21c0.42-0.75,0.99-1.25,1.59-1.72
	c0.05-0.04,0.17,0.01,0.36,0.04C57.94,57.18,57.57,57.97,56.6,58.21z M57.72,63.67c-0.05,0.02-0.11,0.01-0.3,0.03
	c0.53-0.57,0.87-1.17,1.51-1.49C58.54,62.71,58.4,63.41,57.72,63.67z M58.38,59.78c-0.05-0.04-0.1-0.08-0.15-0.11
	c0.31-0.48,0.6-0.96,0.93-1.42c0.09-0.13,0.32-0.16,0.52-0.18C59.29,58.69,58.99,59.36,58.38,59.78z M59.67,62.93
	c0.24-0.53,0.51-1.03,0.96-1.4C60.43,62.09,60.11,62.56,59.67,62.93z M60.17,54.5c0.1-0.09,0.2-0.18,0.3-0.26
	c-0.06,0.11-0.13,0.23-0.19,0.34C60.24,54.55,60.21,54.53,60.17,54.5z M60.52,56.68c-0.03-0.03-0.07-0.06-0.1-0.09
	c0.26-0.32,0.51-0.65,0.77-0.97C61.06,56.04,60.96,56.49,60.52,56.68z M60.49,54.2c0-0.16,0.04-0.29,0.3-0.24
	C60.69,54.04,60.59,54.12,60.49,54.2z M62.09,62.18c-0.21,0.08-0.41,0.15-0.61,0.22c0.28-0.62,0.57-1.21,1.15-1.59
	C62.45,61.26,62.28,61.7,62.09,62.18z M61.49,60.08c0.18-0.27,0.36-0.54,0.54-0.81c0.04,0.03,0.09,0.06,0.13,0.08
	c-0.17,0.27-0.35,0.55-0.52,0.82C61.59,60.14,61.54,60.11,61.49,60.08z M63.53,61.55c0-0.49,0.25-1.04,0.66-1.36
	C63.97,60.96,63.77,61.36,63.53,61.55z M64.44,57.08c-0.04-0.01-0.08-0.02-0.11-0.03c0.05-0.17,0.11-0.35,0.16-0.52
	c0.04,0.01,0.08,0.02,0.11,0.03C64.55,56.74,64.5,56.91,64.44,57.08z M63.84,48.12c-0.46,0.58-0.95,1.14-1.42,1.72
	c-0.58,0.72-1.15,1.44-1.73,2.15c-0.46,0.56-0.93,1.11-1.41,1.65c-0.25,0.28-0.54,0.53-0.82,0.78c-0.09,0.08-0.2,0.14-0.28,0.22
	c-1.52,1.58-3.03,3.16-4.55,4.74c-0.1,0.1-0.21,0.18-0.38,0.32c-0.12-0.17-0.25-0.31-0.34-0.47c-0.24-0.42-0.44-0.86-0.7-1.26
	c-0.44-0.69-1.16-1.09-1.78-1.59c-0.29-0.24-0.61-0.44-0.9-0.67c-0.75-0.63-1.33-1.36-1.56-2.36c-0.32-1.36-1.12-2.47-2.04-3.5
	c-0.35-0.39-0.74-0.76-1.01-1.2c-0.35-0.55-0.76-1.08-0.89-1.76c-0.02-0.13-0.07-0.29-0.15-0.39c-0.55-0.62-1-1.34-1.72-1.8
	c-0.13-0.08-0.23-0.23-0.35-0.33c-0.41-0.33-0.83-0.61-1.36-0.79c-0.54-0.18-1.03-0.62-1.44-1.04c-0.82-0.85-1.6-1.74-2.26-2.73
	c-0.07-0.1-0.11-0.24-0.2-0.3c-0.3-0.21-0.52-0.67-0.95-0.53c-0.41,0.14-0.72,0.44-0.88,0.91c-0.1,0.29-0.33,0.54-0.54,0.77
	c-0.14,0.16-0.57,0.09-0.77-0.12c-0.63-0.61-1.23-1.25-1.86-1.86c-0.32-0.31-0.69-0.56-0.99-0.88c-0.4-0.43-0.98-0.66-1.31-1.17
	c-0.01-0.02-0.03-0.03-0.04-0.04c-0.64-0.47-1.27-0.97-1.92-1.42c-0.78-0.54-1.54-1.08-2.18-1.82c0.16-0.56,0.61-0.91,1.01-1.29
	c0.83-0.78,1.66-1.56,2.48-2.35c0.74-0.71,1.46-1.43,2.2-2.14c0.17-0.16,0.36-0.26,0.66-0.09c-0.3,0.36-0.57,0.73-0.9,1.04
	c-0.52,0.5-1.12,0.92-1.63,1.43c-0.71,0.71-1.38,1.46-2.05,2.21c-0.08,0.09-0.09,0.34-0.02,0.41c0.1,0.11,0.34,0.21,0.46,0.16
	c0.27-0.11,0.52-0.29,0.74-0.5c0.59-0.57,1.13-1.19,1.74-1.74c0.5-0.45,0.53-0.42,1.4-0.43c-0.43,0.58-0.84,1.11-1.32,1.57
	c-0.13,0.12-0.37,0.16-0.56,0.19c-0.26,0.04-0.45,0.14-0.52,0.43c0.08,0.25,0.38,0.32,0.46,0.63c0.11,0.43,0.69,0.45,0.94,0.05
	c0.34-0.53,0.77-0.84,1.42-0.86c0.31-0.01,0.61-0.14,1.02-0.25c-0.39,0.72-0.78,1.3-1.24,1.83c-0.21,0.24-0.53,0.46-0.37,0.84
	c-0.21,0.23-0.65,0.19-0.58,0.69c1.25,0.06,2.36-0.55,3.59-0.71c0.06,0.11,0.11,0.21,0.16,0.31c0.19,0.36,0.49,0.39,0.74,0.09
	c0.05-0.06,0.1-0.14,0.11-0.21c0.1-0.58,0.52-0.8,1.03-0.95c0.53-0.16,1.05-0.35,1.63-0.55c-0.1,0.86-0.35,1.59-0.65,2.31
	c-0.09,0.22-0.26,0.44-0.03,0.66c0.17,0.16,0.71,0.01,0.86-0.24c0.15-0.24,0.24-0.5,0.36-0.76c0.05-0.11,0.09-0.22,0.15-0.35
	c0.3-0.04,0.59-0.08,0.93-0.12c0.01,0.08,0.04,0.17,0.03,0.26c-0.01,0.36-0.04,0.71-0.04,1.07c0,0.27-0.02,0.51-0.21,0.73
	c-0.06,0.07-0.08,0.25-0.03,0.31c0.05,0.06,0.22,0.07,0.32,0.05c0.32-0.09,0.64-0.21,0.96-0.31c0.22-0.07,0.45-0.15,0.74-0.24
	c0,0.38-0.02,0.7,0.01,1.01c0.02,0.18,0.09,0.48,0.19,0.51c0.22,0.06,0.53,0.05,0.73-0.06c0.16-0.09,0.28-0.16,0.47-0.18
	c0.24-0.02,0.47-0.1,0.7-0.16c0.21-0.05,0.42-0.11,0.67-0.18c0.06,0.3,0.11,0.55,0.17,0.81c0.05,0.23,0.16,0.41,0.41,0.47
	c0.37,0.08,0.6-0.1,0.56-0.48c-0.02-0.18-0.06-0.36-0.1-0.53c-0.03-0.16-0.06-0.31-0.09-0.49c0.45-0.36,1.02-0.46,1.54-0.65
	c0.08-0.03,0.24,0.04,0.31,0.11c0.28,0.31,0.6,0.62,0.37,1.15c0.44,0,0.7,0.18,0.9,0.53c0.1,0.18,0.32,0.31,0.51,0.41
	c0.09,0.05,0.28,0.01,0.37-0.06c0.06-0.04,0.07-0.23,0.03-0.32c-0.11-0.23-0.26-0.45-0.42-0.71c0.42-0.16,0.81-0.3,1.25-0.47
	c0.23,0.55,0.44,1.09,0.69,1.61c0.12,0.25,0.31,0.46,0.49,0.67c0.06,0.07,0.26,0.12,0.32,0.07c0.09-0.08,0.17-0.24,0.15-0.35
	c-0.05-0.27-0.17-0.53-0.28-0.86c0.41-0.16,0.79-0.3,1.2-0.46c0.19,0.25,0.44,0.48,0.37,0.79c-0.06,0.27-0.27,0.51-0.49,0.88
	c0.47-0.05,0.81-0.09,1.19-0.13c0.13,0.23,0.28,0.45,0.38,0.68c0.36,0.89,0.95,1.63,1.5,2.4c0.17,0.23,0.45,0.4,0.71,0.54
	c0.1,0.05,0.34-0.01,0.43-0.1c0.08-0.09,0.07-0.3,0.03-0.43c-0.05-0.17-0.17-0.32-0.28-0.46c-0.56-0.76-0.84-1.63-1.02-2.55
	c-0.09-0.47-0.28-0.91-0.44-1.45c0.28,0.14,0.5,0.27,0.73,0.35c0.11,0.04,0.26-0.01,0.39-0.02c-0.03-0.12-0.04-0.26-0.1-0.36
	c-0.08-0.14-0.19-0.26-0.32-0.36c-0.59-0.46-0.87-1.14-1.24-1.74c-0.21-0.34-0.2-0.81-0.31-1.22c-0.17-0.6-0.36-1.19-0.53-1.78
	c-0.03-0.09,0-0.19-0.01-0.28c-0.02-0.11-0.01-0.27-0.08-0.33c-0.55-0.44-0.59-1.17-0.98-1.7c-0.28-0.38-0.49-0.81-0.76-1.2
	c-0.15-0.22-0.31-0.38-0.12-0.69c0.15-0.24-0.05-0.46-0.3-0.57c-0.61-0.27-0.91-0.79-1.16-1.36c-0.15-0.34-0.35-0.67-0.54-0.99
	c-0.2-0.32-0.48-0.57-0.55-0.98c-0.03-0.2-0.29-0.37-0.44-0.56c-0.75-0.97-1.25-2.09-1.48-3.26c-0.2-0.98-0.51-2-0.28-3.04
	c0.05-0.23,0.16-0.45,0.21-0.68c0.08-0.39,0.1-0.79,0.21-1.17c0.14-0.46,0.35-0.9,0.58-1.46c0.53,0.41,0.98,0.74,1.39,1.1
	c0.37,0.33,0.7,0.7,1.05,1.05c0.34,0.34,0.7,0.67,1,1.04c0.4,0.5,0.93,0.82,1.46,1.14c0.25,0.15,0.3,0.35,0.37,0.58
	c0.05,0.18,0.01,0.44,0.12,0.53c0.24,0.2,0.55,0.43,0.83,0.43c0.76-0.02,1.17,0.44,1.58,0.94c0.06,0.07,0.13,0.14,0.21,0.21
	c0.46,0.39,0.92,0.77,1.37,1.16c0.87,0.73,1.75,1.46,2.62,2.2c0.7,0.6,1.37,1.21,2.07,1.81c0.26,0.22,0.51,0.47,0.8,0.62
	c0.79,0.39,1.32,1.09,2.01,1.6c0.81,0.6,1.47,1.36,2.14,2.11c0.57,0.64,1.32,1.05,2.01,1.53c0.83,0.57,1.69,1.08,2.63,1.68
	c-0.39,0.35-0.74,0.67-1.1,0.97c-1.54,1.31-3.24,2.44-4.6,3.97c-0.42,0.47-0.98,0.83-1.46,1.25c-0.21,0.18-0.4,0.39-0.6,0.58
	c-0.44,0.41-0.87,0.82-1.31,1.22c-0.16,0.15-0.33,0.31-0.52,0.41c-0.99,0.52-1.77,1.3-2.58,2.05c-0.56,0.52-1.16,0.99-1.72,1.5
	c-0.52,0.47-1.02,0.97-1.5,1.48c-0.26,0.27-0.25,0.56-0.03,0.81c0.19,0.22,0.45,0.25,0.76,0.08c0.1-0.06,0.22-0.21,0.29-0.19
	c0.53,0.13,0.66-0.29,0.93-0.58c0.84-0.91,1.61-1.9,2.66-2.6c0.46-0.31,0.91-0.67,1.29-1.07c0.38-0.4,0.81-0.48,1.35-0.4
	c-0.04,0.24-0.23,0.35-0.38,0.5c-0.84,0.84-1.7,1.66-2.32,2.69c-0.08,0.13-0.14,0.27-0.2,0.4c0.64,0.37,0.79,0.33,1.14-0.16
	c0.22-0.31,0.47-0.6,0.7-0.91c0.24-0.32,0.57-0.41,0.93-0.39c-0.05,0.29-0.1,0.56-0.15,0.81c0.62,0.23,0.69,0.24,0.97-0.2
	c0.4-0.64,0.95-0.92,1.68-0.96c0.37-0.02,0.74-0.14,1.15-0.11c-0.1,0.06-0.21,0.17-0.3,0.16c-0.6-0.09-0.93,0.28-1.23,0.7
	c-0.15,0.21-0.25,0.46-0.4,0.68C64.36,47.42,64.11,47.77,63.84,48.12z M75.69,34.24c0.62-0.52,1.15-0.95,1.69-1.39
	c0.03,0.04,0.06,0.07,0.09,0.11C77.07,33.56,76.61,34.09,75.69,34.24z M77.56,40.48c0.04,0.02,0.07,0.03,0.11,0.05
	c-0.07,0.11-0.15,0.23-0.22,0.34C77.48,40.75,77.52,40.61,77.56,40.48z M75.02,40.05c0.54-0.69,0.91-1.36,1.64-1.8
	C76.4,38.99,75.62,39.88,75.02,40.05z M76.54,40.69c-0.18,0.43-0.32,0.89-0.54,1.3c-0.17,0.31-0.54,0.27-0.96,0.36
	c0.42-0.7,0.81-1.28,1.33-1.75C76.43,40.63,76.48,40.66,76.54,40.69z M74.67,33.77c-0.55,0.43-1.02,0.98-1.67,1.28
	c0.85-1.18,1.73-2.32,3.3-2.61C75.76,32.89,75.22,33.34,74.67,33.77z M73.16,40.56c-0.26,0.21-0.66,0.24-1.03,0.37
	c0.15-0.37,0.15-0.37,0.72-0.85c0.27-0.23,0.55-0.46,0.83-0.69c0.51-0.43,0.51-0.43,1.01-0.52C74.25,39.53,73.74,40.09,73.16,40.56z
	 M74.54,41.24c-0.31,0.5-0.58,0.93-0.86,1.36c-0.06,0.1-0.16,0.2-0.26,0.24c-0.39,0.13-0.78,0.24-1.3,0.39
	c0.15-0.22,0.21-0.34,0.3-0.44c0.35-0.38,0.7-0.77,1.06-1.14C73.74,41.37,74.07,41.24,74.54,41.24z M72.66,38.4
	c0.38-0.41,0.83-0.71,1.49-0.9C73.73,38.09,73.29,38.4,72.66,38.4z M73.8,35.81c0.23-0.2,0.48-0.36,0.82-0.32
	c-0.21,0.43-1.69,1.55-2.49,1.76C72.68,36.77,73.24,36.29,73.8,35.81z M71.64,36.39c-0.03-0.03-0.06-0.07-0.09-0.1
	c0.24-0.22,0.48-0.43,0.72-0.65c0.03,0.03,0.05,0.06,0.08,0.09C72.11,35.96,71.88,36.17,71.64,36.39z M71.68,39.56
	c0.02,0.04,0.05,0.08,0.07,0.11c-0.06,0.08-0.11,0.18-0.18,0.24c-0.54,0.48-1.09,0.94-1.62,1.44c-0.46,0.43-1.02,0.43-1.57,0.53
	c-0.02-0.05-0.04-0.09-0.07-0.14c0.79-0.6,1.57-1.23,2.38-1.8C70.98,39.74,71.35,39.68,71.68,39.56z M68.47,40.4
	c-0.39,0.32-0.78,0.63-1.18,0.95C67.57,40.89,67.89,40.48,68.47,40.4z M67.34,39.85c0.22-0.48,0.79-0.94,1.23-1.1
	C68.15,39.12,67.74,39.48,67.34,39.85z M68.62,38.7c0.09-0.1,0.17-0.2,0.26-0.3c0.03,0.03,0.05,0.06,0.08,0.09
	C68.85,38.56,68.74,38.63,68.62,38.7z M70.82,38.59c-0.34,0.26-0.57,0.68-1.12,0.58C70.21,38.58,70.5,38.42,70.82,38.59z
	 M69.79,37.7c0.16-0.09,0.31-0.18,0.47-0.27c-0.13,0.13-0.26,0.26-0.39,0.38C69.84,37.77,69.81,37.74,69.79,37.7z M70.34,37.36
	c0.17-0.15,0.34-0.31,0.51-0.46c0.03,0.03,0.05,0.07,0.08,0.1C70.73,37.12,70.54,37.24,70.34,37.36z M66.78,41.72
	c-0.05,0.08-0.1,0.15-0.15,0.23c-0.03-0.02-0.06-0.04-0.09-0.06c0.06-0.07,0.12-0.14,0.18-0.21C66.74,41.69,66.76,41.71,66.78,41.72
	z M63.74,43.02c0.27-0.67,2-2.22,2.66-2.35C65.53,41.41,64.89,42.43,63.74,43.02z M64.7,43.72c-0.33,0.42-0.65,0.85-1,1.26
	c-0.09,0.11-0.28,0.13-0.47,0.09c0.48-0.46,0.95-0.93,1.43-1.39C64.67,43.69,64.69,43.7,64.7,43.72z M64.71,58.76
	c0.07-0.14,0.14-0.28,0.2-0.42c0.03,0.02,0.07,0.03,0.1,0.05c-0.07,0.15-0.14,0.3-0.2,0.45C64.78,58.81,64.75,58.78,64.71,58.76z
	 M65.61,60.67c-0.08,0.16-0.34,0.23-0.53,0.34c-0.04-0.04-0.08-0.08-0.11-0.12c0.34-0.5,0.31-1.24,1.13-1.57
	C65.92,59.84,65.81,60.28,65.61,60.67z M66.29,62.13c-0.03-0.01-0.06-0.02-0.1-0.03c0.03-0.11,0.05-0.21,0.08-0.32
	c0.03,0,0.05,0.01,0.08,0.01C66.33,61.91,66.31,62.02,66.29,62.13z M66.51,57.83c-0.04-0.04-0.08-0.07-0.12-0.11
	c0.06-0.08,0.12-0.16,0.17-0.24c0.04,0.04,0.12,0.1,0.12,0.12C66.64,57.68,66.57,57.75,66.51,57.83z M65.32,44.68
	c0.6-1.11,2.01-1.9,3.16-1.77C67.6,44.33,66.47,44.97,65.32,44.68z M69.07,43.84c0.69-0.93,1.32-1.89,2.67-1.78
	c-0.18,0.24-0.37,0.49-0.57,0.74C70.45,43.69,70.33,43.74,69.07,43.84z M71.84,45.33c-0.43,0.09-0.86,0.16-1.37,0.26
	c0.38-1.2,1.2-1.59,2.3-1.63c-0.24,0.41-0.46,0.81-0.7,1.2C72.03,45.24,71.93,45.32,71.84,45.33z M72.7,46.2
	c0.29-0.31,0.49-0.36,1.27-0.29C73.56,46,73.15,46.09,72.7,46.2z M73.29,44.92c0.45-0.92,0.96-1.68,2.08-1.66
	C75.28,44.33,74.68,44.82,73.29,44.92z M76.83,46.61c-0.38,0.15-0.79,0.24-1.28,0.38c0.31-0.85,0.99-0.78,1.55-0.99
	C77.22,46.33,77.06,46.52,76.83,46.61z M77.42,40.95c-0.03,0.16-0.05,0.33-0.08,0.49c-0.05-0.01-0.1-0.03-0.14-0.04
	C77.27,41.25,77.34,41.1,77.42,40.95z M78.52,42.83c-0.19,0.97-0.21,0.98-1.31,1.11c0.39-0.62,0.35-1.5,1.4-1.66
	C78.57,42.53,78.55,42.68,78.52,42.83z M78.46,41.4c0.19-0.58,0.34-1.03,0.48-1.48C79.04,41,79.01,41.09,78.46,41.4z M78.47,30.53
	c-0.31,0.25-0.74,0.35-1.12,0.51c0.4-0.76,1.02-1.25,1.91-1.45C79.12,30.04,78.76,30.29,78.47,30.53z M79.64,42.86
	c-0.05-0.02-0.09-0.05-0.14-0.07c0.08-0.33,0.03-0.73,0.56-0.83C79.93,42.26,79.78,42.56,79.64,42.86z M79.96,40.71
	c0.05-0.39,0.09-0.77,0.14-1.2c0.31-0.11,0.62-0.22,0.93-0.33C81.28,40.15,80.84,40.78,79.96,40.71z M80.32,37.18
	c0.07,0,0.15,0,0.22-0.01c0.1,0.32,0.21,0.64,0.32,0.99c-0.25,0.11-0.42,0.19-0.64,0.29C80.2,37.99,79.96,37.55,80.32,37.18z
	 M80.87,42.78c0.38-0.98,0.66-1.36,1.13-1.54C82.01,41.71,81.67,42.19,80.87,42.78z M88.34,29.18c-0.22-0.2-0.4-0.34-0.56-0.49
	c-0.28-0.26-0.55-0.52-0.81-0.8c-0.52-0.55-1-1.13-1.59-1.62c-0.69-0.58-1.28-1.27-1.92-1.9c-0.16-0.15-0.32-0.3-0.5-0.43
	c-0.2-0.15-0.42-0.19-0.68-0.08c-0.27,0.12-0.57,0.19-0.85,0.3c-0.11,0.04-0.22,0.1-0.31,0.18c-0.35,0.27-0.68,0.55-1.03,0.82
	c-0.31,0.24-0.64,0.45-0.85,0.82c-0.16,0.28-0.5,0.45-0.74,0.69c-1.05,1.02-2.08,2.07-3.16,3.05c-0.53,0.48-0.92,1.04-1.37,1.58
	c-0.58,0.71-1.23,1.37-1.89,2.09c-0.36-0.31-0.67-0.58-1-0.84c-1.19-0.95-2.38-1.89-3.58-2.82c-0.24-0.18-0.54-0.29-0.75-0.49
	c-0.36-0.34-0.68-0.72-1.02-1.08c-0.38-0.41-0.75-0.82-1.12-1.24c-0.49-0.56-0.94-1.15-1.45-1.68c-0.4-0.41-0.88-0.75-1.35-1.15
	c0.19-0.21,0.39-0.44,0.6-0.67c0.59-0.63,1.17-1.26,1.77-1.89c1.12-1.19,2.43-2.19,3.46-3.49c0.67-0.85,1.39-1.66,2.09-2.48
	c0.83-0.98,1.65-1.97,2.5-2.93c0.92-1.05,1.71-2.19,2.23-3.48c0.33-0.81,0.51-1.69,0.74-2.53c0.03-0.11-0.02-0.24,0-0.36
	c0.03-0.19,0.04-0.39,0.13-0.55c0.14-0.24,0.18-0.43-0.01-0.65c-0.32-0.38-0.24-0.86-0.04-1.19c0.21-0.35,0.31-0.59,0-0.86
	c0.17-0.4,0.28-0.77,0.76-0.88c0.74,0.72,1.5,1.45,2.25,2.2c0.23,0.23,0.43,0.48,0.61,0.74c0.68,0.95,1.59,1.68,2.44,2.46
	c0.27,0.25,0.47,0.51,0.65,0.84c0.41,0.73,0.88,1.44,1.38,2.12c0.72,0.97,1.39,1.94,1.86,3.07c0.28,0.69,0.84,1.26,1.29,1.87
	c0.22,0.29,0.48,0.53,0.51,0.93c0.01,0.12,0.18,0.24,0.28,0.35c0.21,0.24,0.47,0.45,0.64,0.71c1.04,1.61,2.39,2.91,4.02,3.93
	c0.83,0.52,1.63,1.1,2.49,1.67c-0.34,0.44-0.67,0.93-1.05,1.36c-0.77,0.87-1.55,1.73-2.36,2.56C90.19,27.74,89.28,28.49,88.34,29.18
	z M93.91,27.13c0.03,0.25-0.08,0.34-0.26,0.34C93.74,27.36,93.82,27.24,93.91,27.13z M93.62,27.51c-0.03,0.28-0.18,0.47-0.45,0.56
	C93.32,27.88,93.47,27.69,93.62,27.51z M93.11,28.13c-0.13,0.2-0.27,0.39-0.4,0.59c-0.04-0.03-0.08-0.07-0.12-0.1
	C92.76,28.46,92.94,28.3,93.11,28.13z M92.23,29.21c-0.09,0.12-0.18,0.23-0.27,0.35c-0.03-0.02-0.06-0.04-0.09-0.06
	c0.1-0.11,0.2-0.22,0.29-0.33C92.18,29.18,92.2,29.2,92.23,29.21z M89.36,29.96c0.32-0.27,0.66-0.51,0.99-0.77
	c0.48-0.38,0.95-0.77,1.44-1.13c-0.68,1.01-1.6,1.8-2.45,2.72C89,30.4,89.12,30.16,89.36,29.96z M91.22,30.38
	c0.06-0.13,0.12-0.26,0.22-0.49C91.52,30.23,91.36,30.3,91.22,30.38z M90.29,31.97c-0.1-0.1-0.23-0.23-0.41-0.41
	c0.44-0.45,0.8-0.9,1.33-1.17c-0.16,0.27-0.32,0.53-0.47,0.8C90.59,31.44,90.45,31.69,90.29,31.97z M104.48,51.42
	c-0.04-0.02-0.08-0.05-0.11-0.07c0.16-0.25,0.32-0.5,0.48-0.74c0.03,0.02,0.06,0.04,0.1,0.06
	C104.79,50.92,104.64,51.17,104.48,51.42z M104.95,48.58c0.17-0.21,0.34-0.42,0.57-0.71C105.48,48.29,105.24,48.46,104.95,48.58z
	 M106.39,50.62c-0.04-0.03-0.09-0.06-0.13-0.09c0.22-0.32,0.44-0.64,0.67-0.96c0.04,0.03,0.08,0.06,0.12,0.08
	C106.82,49.98,106.76,50.4,106.39,50.62z M107.2,47.77c0.04-0.34,0.04-0.34,0.33-0.58c0.11-0.16,0.21-0.31,0.32-0.47
	c0.04,0.03,0.07,0.06,0.11,0.09c-0.13,0.13-0.27,0.26-0.4,0.4C107.44,47.39,107.32,47.58,107.2,47.77z M107.69,52.88
	c-0.03-0.28-0.03-0.28,0.29-0.54C107.97,52.6,107.95,52.79,107.69,52.88z M109.28,51.96c0.33-0.93,0.75-1.66,1.26-2.36
	C110.34,50.42,109.8,51.41,109.28,51.96z M111.42,58.66c0.07-0.51,0.39-0.84,0.67-1.3C112.16,58.21,112.11,58.31,111.42,58.66z
	 M113.36,37.45c-0.6,0.32-1.19,0.66-1.76,1.04c-0.86,0.56-1.69,1.14-2.54,1.72c-0.16,0.11-0.32,0.24-0.48,0.36
	c-1.13,0.9-2.27,1.79-3.38,2.71c-0.37,0.3-0.7,0.66-1.05,0.99c-0.11,0.11-0.24,0.2-0.4,0.32c-0.37-0.78-1.07-1.17-1.67-1.67
	c-0.95-0.8-1.9-1.61-2.84-2.42c-0.12-0.1-0.22-0.24-0.35-0.32c-0.56-0.36-0.94-0.91-1.42-1.35c-1.02-0.92-1.77-2.07-2.7-3.07
	c-0.67-0.72-1.34-1.41-2.19-1.95c-0.6-0.39-1.11-0.91-1.66-1.37c0.08-0.06,0.23-0.14,0.31-0.27c0.92-1.48,2.12-2.71,3.27-4
	c0.44-0.49,0.94-0.93,1.37-1.43c0.33-0.38,0.78-0.45,1.18-0.63c0.03,0.03,0.07,0.07,0.1,0.1c-0.3,0.43-0.59,0.86-0.91,1.28
	c-0.08,0.1-0.25,0.12-0.37,0.18c-0.3,0.16-0.59,0.32-0.97,0.52c0.23,0.15,0.35,0.23,0.5,0.32c-0.01,0.03-0.02,0.1-0.06,0.13
	c-0.53,0.6-1.06,1.2-1.59,1.8c-0.12,0.14-0.23,0.28-0.33,0.43c-0.2,0.32-0.19,0.54,0.02,0.7c0.21,0.17,0.53,0.11,0.75-0.13
	c0.34-0.39,0.68-0.8,1.02-1.19c0.46-0.52,0.94-1.04,1.43-1.55c-0.24,0.69-0.56,1.33-1.16,1.83c0.7,0.15,1.24-0.21,1.86-0.31
	c-0.07,0.13-0.14,0.25-0.18,0.37c-0.1,0.33-0.01,0.49,0.34,0.65c0.33,0.15,0.4,0.12,0.61-0.23c0.23-0.38,0.48-0.75,0.72-1.12
	c0.18-0.27,0.44-0.39,0.86-0.46c-0.1,0.28-0.16,0.48-0.24,0.67c-0.14,0.36,0.03,0.66,0.42,0.63c0.37-0.03,0.76-0.12,0.97-0.5
	c0.15-0.28,0.33-0.56,0.45-0.85c0.31-0.73,0.93-0.94,1.79-1.08c-0.26,0.55-0.45,0.98-0.68,1.4c-0.06,0.1-0.21,0.16-0.33,0.23
	c-0.27,0.14-0.48,0.34-0.58,0.72c0.32-0.04,0.59-0.12,0.85-0.09c0.56,0.06,1.06-0.15,1.57-0.3c0.25-0.08,0.44-0.11,0.67,0.06
	c0.14,0.11,0.36,0.12,0.55,0.18c0.13-0.24,0.23-0.43,0.36-0.67c0.32,0.22,0.61,0.41,0.95,0.63c-0.35,0.61-1.22,0.43-1.49,1.08
	c0.15,0.25,0.41,0.21,0.63,0.16c0.55-0.12,1.09-0.26,1.63-0.42c0.31-0.09,0.61-0.19,0.99-0.02c-0.05,0.2-0.09,0.41-0.16,0.61
	c-0.09,0.26-0.01,0.43,0.22,0.55c0.22,0.12,0.48,0.04,0.61-0.22c0.19-0.37,0.36-0.75,0.58-1.23c0.05,0.16,0.08,0.21,0.07,0.25
	c-0.2,0.64-0.2,0.64,0.39,1.01c-0.1,0.12-0.23,0.22-0.29,0.35c-0.06,0.13-0.09,0.31-0.05,0.44c0.02,0.06,0.24,0.09,0.37,0.08
	c0.15-0.01,0.3-0.07,0.47-0.11c0.07,0.2,0.11,0.38,0.2,0.53c0.19,0.32,0.4,0.59,0.85,0.52c0.25-0.04,0.51-0.01,0.8,0.07
	c-0.23,0.12-0.47,0.22-0.68,0.36c-0.33,0.22-0.71,0.4-0.76,0.87c-0.01,0.07,0.02,0.15,0.04,0.32c0.69-0.17,1.29-0.49,1.96-0.66
	c0.24,0.17,0.41,0.39,0.46,0.72c0.05,0.33,0.2,0.58,0.52,0.76c0.19,0.11,0.31,0.34,0.52,0.58C113.98,37.23,113.65,37.3,113.36,37.45
	z M115.04,34.95c-0.23-0.05-0.46-0.11-0.73-0.17c0.08-0.23,0.13-0.39,0.21-0.63c0.22,0.27,0.4,0.48,0.58,0.7
	C115.08,34.88,115.06,34.91,115.04,34.95z"/>
</svg>
