<svg xmlns="http://www.w3.org/2000/svg" width="31.984" height="29.719" viewBox="0 0 31.984 29.719">
  <g id="punto_3" transform="translate(0.5 0.5)">
    <path id="Trazado_5932" data-name="Trazado 5932" d="M129.686,2.617h-.042l-17.158.1a7.02,7.02,0,0,0-1.529.177h0a6.814,6.814,0,0,0-2.5,1.145,6.961,6.961,0,0,0-2.818,5.06,6.8,6.8,0,0,0,.153,2.056,6.949,6.949,0,0,0,.777,1.954l8.664,14.811a6.938,6.938,0,0,0,1.474,1.77,6.844,6.844,0,0,0,2.9,1.466,6.976,6.976,0,0,0,3.152.006,6.849,6.849,0,0,0,4.437-3.309l8.495-14.908a6.926,6.926,0,0,0,.847-2.472,6.838,6.838,0,0,0-.11-2.478,6.962,6.962,0,0,0-3.287-4.458,6.822,6.822,0,0,0-1.648-.682,6.973,6.973,0,0,0-1.8-.234" transform="translate(-105.613 -2.617)" fill="#ff0074" stroke="#c8005b" stroke-width="1"/>
    <path id="Trazado_5933" data-name="Trazado 5933" d="M0,0,11.709,5.871,0,11.741,3.482,5.871Z" transform="matrix(0.914, -0.407, 0.407, 0.914, 9.119, 9.181)" fill="#fff"/>
  </g>
</svg>
